<?xml version="1.0" encoding="UTF-8"?>
<svg width="200px" height="58px" viewBox="0 0 200 58" version="1.1" xmlns="http://www.w3.org/2000/svg" xmlns:xlink="http://www.w3.org/1999/xlink">
    <!-- Generator: Sketch 63.1 (92452) - https://sketch.com -->
    <title>logo/desktop/primary</title>
    <desc>Created with Sketch.</desc>
    <defs>
        <polygon id="path-1" points="0 0.0100869565 40.3107037 0.0100869565 40.3107037 57.8060007 0 57.8060007"></polygon>
        <polygon id="path-3" points="0.128342967 0.0100869565 22.6957611 0.0100869565 22.6957611 46.0600696 0.128342967 46.0600696"></polygon>
    </defs>
    <g id="logo/desktop/primary" stroke="none" stroke-width="1" fill="none" fill-rule="evenodd">
        <g id="Group-15">
            <path d="M57.6766281,12.3548147 L49.8465703,32.2323264 C49.7891522,32.3915839 49.6388632,32.497497 49.4706551,32.497497 C49.4706551,32.497497 49.1558189,32.3942997 49.0966667,32.2381458 L38.7486898,12.3963264 C38.6446435,12.1216508 38.2930058,12.0477445 38.0887669,12.2578247 L31.9804817,18.5394769 C31.8654528,18.6578047 31.8338536,18.8347144 31.9010983,18.9858247 L44.185106,39.5698114 C45.3007129,41.439196 45.6750867,43.6713231 45.1918497,45.7971492 C44.6660308,48.1095839 43.4265318,50.6641057 40.5325048,51.0790288 C40.2483044,51.1197645 40.096474,51.4378916 40.2446435,51.68541 L43.6829865,57.4223666 C43.7787476,57.582206 43.9706551,57.6533967 44.1477264,57.5979184 C47.3130443,56.6070689 50.6816378,53.8779652 53.4617919,46.5678314 L66.5799037,12.6386074 C66.6822158,12.3746007 66.4885742,12.0896441 66.2070713,12.0896441 L58.052736,12.0896441 C57.8845279,12.0896441 57.7340462,12.1955572 57.6766281,12.3548147" id="Fill-1" fill="#0051D3"></path>
            <g id="Group-5" transform="translate(0.000000, 0.183893)">
                <mask id="mask-2" fill="white">
                    <use xlink:href="#path-1"></use>
                </mask>
                <g id="Clip-4"></g>
                <path d="M30.9261464,57.6133786 L15.3357803,31.9482816 C15.2020617,31.7279204 14.8995568,31.6895124 14.7157418,31.8697197 L8.58529865,37.8681612 C8.507842,37.9442013 8.46410405,38.0483686 8.46410405,38.1571913 L8.46410405,45.6077666 C8.46410405,45.8302615 8.28491329,46.0106629 8.06391137,46.0106629 L0.400134875,46.0106629 C0.179132948,46.0106629 -5.78034682e-05,45.8302615 -5.78034682e-05,45.6077666 L-5.78034682e-05,0.41296388 C-5.78034682e-05,0.190468896 0.179132948,0.0100675585 0.400134875,0.0100675585 L8.06391137,0.0100675585 C8.28491329,0.0100675585 8.46410405,0.190468896 8.46410405,0.41296388 L8.46410405,26.6729973 C8.46410405,27.034188 8.89974952,27.2128435 9.15042389,26.9544622 L23.5377071,12.0189773 C23.6128516,11.9413853 23.7161272,11.8977398 23.8238343,11.8977398 L33.1577457,11.8977398 C33.5101541,11.8977398 33.690501,12.3233318 33.446185,12.5793853 L21.4654528,25.3242548 C21.3400193,25.4557732 21.3178613,25.6555726 21.4116956,25.8115324 L40.2523507,57.1947699 C40.4136224,57.4634321 40.2215222,57.8060007 39.9099615,57.8060007 L31.2673796,57.8060007 C31.1280732,57.8060007 30.9987861,57.7330642 30.9261464,57.6133786" id="Fill-3" fill="#2F2E3F" mask="url(#mask-2)"></path>
            </g>
            <path d="M113.432042,25.730992 L130.120867,25.730992 C130.372505,25.730992 130.5621,25.4999619 130.515279,25.2512796 C129.859981,21.7738013 127.190424,18.7025171 121.696204,18.7025171 C117.585414,18.7025171 114.221638,20.7266977 113.044759,25.2214067 C112.977707,25.4780421 113.168459,25.730992 113.432042,25.730992 M138.423372,31.888691 L113.352659,31.888691 C113.094663,31.888691 112.905645,32.1313599 112.962293,32.3848916 C114.020867,37.1102428 117.431079,39.7258682 122.746493,39.7258682 C126.499287,39.7258682 129.849961,38.3379418 132.134162,35.7296876 C132.276744,35.5671324 132.524528,35.5537478 132.68869,35.6941893 L137.411618,39.7301358 C137.572505,39.8676676 137.601985,40.1089786 137.474817,40.2783231 C134.432813,44.3317278 129.604489,46.8786843 122.128574,46.8786843 C110.946108,46.8786843 104.335511,39.9745505 104.335511,29.2761692 C104.335511,18.5779819 111.440328,11.6738482 121.696204,11.6738482 C133.187534,11.6738482 138.871349,19.0134669 138.871349,29.4005104 C138.871349,29.965186 138.841291,30.9539017 138.823179,31.4995672 C138.815857,31.7166308 138.639171,31.888691 138.423372,31.888691" id="Fill-6" fill="#2F2E3F"></path>
            <path d="M141.820366,29.2762468 C141.820366,18.9512769 148.554663,11.7361933 159.860636,11.7361933 C166.248112,11.7361933 171.28395,14.2806281 174.222486,18.157511 C174.348304,18.3235579 174.322486,18.5604074 174.167765,18.6996849 L168.89975,23.445404 C168.727881,23.6002 168.460058,23.5786682 168.319788,23.3945813 C166.561407,21.086996 163.702062,19.4488355 160.169499,19.4488355 C151.70341,19.4488355 146.1379,29.5078589 153.090308,36.6998589 C157.601869,41.3670161 165.949846,38.5894174 168.625761,35.2106749 C168.76815,35.0308555 169.03289,35.0126214 169.202447,35.1668355 L174.355048,39.8522268 C174.508613,39.9918923 174.533661,40.2283538 174.407842,40.3938187 C171.415164,44.3316114 166.432119,46.8785679 159.860636,46.8785679 C148.430963,46.8785679 141.820366,39.9744341 141.820366,29.2762468" id="Fill-8" fill="#2F2E3F"></path>
            <g id="Group-12" transform="translate(177.263969, 0.183893)">
                <mask id="mask-4" fill="white">
                    <use xlink:href="#path-3"></use>
                </mask>
                <g id="Clip-11"></g>
                <path d="M4.94722543,45.6571732 L4.94722543,19.336812 C4.94722543,19.1143171 4.76803468,18.9341097 4.54703276,18.9341097 L0.528342967,18.9341097 C0.30734104,18.9341097 0.128342967,18.7537084 0.128342967,18.5312134 L0.128342967,12.3085311 C0.128342967,12.0860361 0.30734104,11.9056348 0.528342967,11.9056348 L4.54703276,11.9056348 C4.76803468,11.9056348 4.94722543,11.7254274 4.94722543,11.5029324 L4.94722543,0.412905686 C4.94722543,0.190410702 5.12641618,0.0100093645 5.34741811,0.0100093645 L12.8876879,0.0100093645 C13.1086898,0.0100093645 13.2878805,0.190410702 13.2878805,0.412905686 L13.2878805,11.5029324 C13.2878805,11.7254274 13.4668786,11.9056348 13.6878805,11.9056348 L22.2955877,11.9056348 C22.5165896,11.9056348 22.6957803,12.0860361 22.6957803,12.3085311 L22.6957803,18.5312134 C22.6957803,18.7537084 22.5165896,18.9341097 22.2955877,18.9341097 L13.6878805,18.9341097 C13.4668786,18.9341097 13.2878805,19.1143171 13.2878805,19.336812 L13.2878805,45.6571732 C13.2878805,45.8794742 13.1086898,46.0600696 12.8876879,46.0600696 L5.34741811,46.0600696 C5.12641618,46.0600696 4.94722543,45.8794742 4.94722543,45.6571732" id="Fill-10" fill="#2F2E3F" mask="url(#mask-4)"></path>
            </g>
            <path d="M85.6744316,11.673887 C83.0376301,11.6552649 80.4401349,12.3904488 78.1291522,13.6846829 L78.1291522,12.5258468 C78.1291522,12.3033518 77.9501541,12.1231445 77.7291522,12.1231445 L70.065183,12.1231445 C69.8441811,12.1231445 69.665183,12.3033518 69.665183,12.5258468 L69.665183,45.7916595 C69.665183,46.0141545 69.8441811,46.1943619 70.065183,46.1943619 L77.7291522,46.1943619 C77.9501541,46.1943619 78.1291522,46.0141545 78.1291522,45.7916595 L78.1291522,28.0552983 C78.1293449,21.7133184 82.2609441,19.5052448 85.8345472,19.5170776 C89.5239499,19.5052448 92.9567052,22.084402 92.9567052,28.0556863 L92.9567052,45.7916595 C92.9567052,46.0141545 93.135896,46.1943619 93.3568979,46.1943619 L100.959017,46.1943619 C101.180019,46.1943619 101.35921,46.0141545 101.35921,45.7916595 L101.35921,27.5191378 C101.35921,17.0075592 94.447264,11.7361545 85.6744316,11.673887" id="Fill-13" fill="#2F2E3F"></path>
        </g>
    </g>
</svg>