<?xml version="1.0" encoding="UTF-8"?>
<svg width="179px" height="40px" viewBox="0 0 179 40" version="1.1" xmlns="http://www.w3.org/2000/svg" xmlns:xlink="http://www.w3.org/1999/xlink">
    <!-- Generator: sketchtool 62 (101010) - https://sketch.com -->
    <title>482199BB-61D0-4BEA-B5B1-B8BE2896A58C@1.00x</title>
    <desc>Created with sketchtool.</desc>
    <g id="Mobile-Phase-2" stroke="none" stroke-width="1" fill="none" fill-rule="evenodd">
        <g id="Desktop-HomePage3-Unsponsored" transform="translate(-51.000000, -26.000000)">
            <g id="SVG-Truvvi-logo" transform="translate(41.000000, 16.000000)">
                <rect id="Rectangle" fill="#003990" x="177.666667" y="13.6666667" width="10.5" height="36"></rect>
                <polygon id="Rectangle" fill="#003990" points="103.5 13.6666667 115.5 13.6666667 120 37.2469632 129.5 13.6666667 141 13.6666667 125.5 49.6666667 114 49.6666667"></polygon>
                <polygon id="Rectangle" fill="#003990" points="140.5 13.6666667 152.5 13.6666667 157 37.2469632 166.5 13.6666667 178 13.6666667 162.5 49.6666667 151 49.6666667"></polygon>
                <path d="M87.0356405,31.1615796 C87.0356405,34.6620149 85.1633147,36.8608333 82.7368221,36.8608333 C80.2672326,36.8608333 78.1389366,34.6119527 78.1389366,31.1615796 L78.1389366,10.9643159 L67.8796704,10.9643159 L67.8796704,32.0348383 C67.8796704,41.3342164 74.0090236,48.2562935 82.6928545,48.2562935 C91.3362002,48.2562935 97.2892475,41.3342164 97.2892475,32.0348383 L97.2892475,10.9643159 L87.0356405,10.9643159 L87.0356405,31.1615796 Z" id="Fill-6" fill="#FFFFFF"></path>
                <path d="M52.8674565,27.7618781 L48.6069465,27.7618781 L48.6069465,20.1136816 L52.8674565,20.1136816 C54.9957525,20.1136816 56.2307649,21.2633706 56.2307649,23.8631219 C56.2307649,26.5621269 54.9957525,27.7618781 52.8674565,27.7618781 M65.5963122,23.5126866 C65.5963122,15.5140547 60.9557649,10.96449 52.8674565,10.96449 L38.6876679,10.96449 L38.6876679,47.7567164 L48.6069465,47.7567164 L48.6069465,36.9110697 L51.6507276,36.9110697 L55.2277799,47.7567164 L66.7455659,47.7567164 L60.8713122,34.6116915 C63.9364241,32.4115672 65.5963122,28.6120647 65.5963122,23.5126866" id="Fill-8" fill="#FFFFFF"></path>
                <polygon id="Fill-10" fill="#FFFFFF" points="10.0437811 20.9858955 17.9396766 20.9858955 17.9396766 47.7565423 28.5006219 47.7565423 28.5006219 20.9858955 36.3603856 20.9858955 36.3603856 10.9643159 10.0437811 10.9643159"></polygon>
                <path d="M185.318427,46.5198756 L176.0813,46.5198756 L176.0813,12.2477363 C176.0813,12.233806 176.080864,12.2198756 176.079994,12.2059453 L185.318427,12.2059453 L185.318427,46.5198756 Z M159.717929,46.5198756 L148.950205,46.5198756 L138.830243,12.2059453 L149.458663,12.2059453 L153.969484,35.1096144 C154.029123,35.4121642 154.275516,35.6398383 154.57676,35.6694403 C154.87931,35.7003483 155.162705,35.5244776 155.278501,35.2393408 L164.599646,12.2059453 L174.66084,12.2059453 L159.717929,46.5198756 Z M122.229185,46.5198756 L111.461026,46.5198756 L101.341499,12.2059453 L111.969919,12.2059453 L116.48074,35.1096144 C116.540379,35.4121642 116.787208,35.6398383 117.088016,35.6694403 C117.390566,35.7003483 117.673961,35.5244776 117.789757,35.2393408 L127.111337,12.2059453 L137.172096,12.2059453 L122.229185,46.5198756 Z M186.005802,10.8033333 L164.140379,10.8033333 C163.862208,10.8033333 163.611461,10.9748507 163.505243,11.2369154 L154.871474,32.5708085 L150.695417,11.3666418 C150.630553,11.0388433 150.348899,10.8033333 150.021536,10.8033333 L126.6512,10.8033333 C126.373464,10.8033333 126.122718,10.9748507 126.016063,11.2369154 L117.382295,32.5708085 L113.206673,11.3666418 C113.14181,11.0388433 112.85972,10.8033333 112.532792,10.8033333 L100.416872,10.8033333 C100.199646,10.8033333 99.9950435,10.9082463 99.8653172,11.0862935 C99.7355908,11.2643408 99.6959764,11.4941915 99.7590983,11.7066294 L110.292183,47.4231716 C110.379248,47.7196269 110.646971,47.9224876 110.950392,47.9224876 L122.676262,47.9224876 C122.947469,47.9224876 123.193427,47.7592413 123.303999,47.5058831 L137.912581,13.9598632 L147.781362,47.4231716 C147.868862,47.7196269 148.13615,47.9224876 148.439136,47.9224876 L160.164571,47.9224876 C160.436213,47.9224876 160.68217,47.7592413 160.792743,47.5058831 L174.707419,15.5527114 L174.707419,47.2207463 C174.707419,47.6081841 175.014757,47.9224876 175.394359,47.9224876 L186.005802,47.9224876 C186.384969,47.9224876 186.692743,47.6081841 186.692743,47.2207463 L186.692743,11.5046393 C186.692743,11.1176368 186.384969,10.8033333 186.005802,10.8033333 L186.005802,10.8033333 Z" id="Fill-12" fill="#FFFFFF"></path>
            </g>
        </g>
    </g>
</svg>