<?xml version="1.0" encoding="UTF-8"?>
<svg width="20px" height="40px" viewBox="0 0 20 40" version="1.1" xmlns="http://www.w3.org/2000/svg" xmlns:xlink="http://www.w3.org/1999/xlink">
    <!-- Generator: sketchtool 62 (101010) - https://sketch.com -->
    <title>70611F01-90A2-42C6-A1FF-5B15ABA9E408@1.00x</title>
    <desc>Created with sketchtool.</desc>
    <g id="Mobile-Phase-2" stroke="none" stroke-width="1" fill="none" fill-rule="evenodd">
        <g id="Desktop-HomePage3-Unsponsored" transform="translate(-1139.000000, -2464.000000)">
            <g id="footer/social-bar" transform="translate(-1.000000, 2421.000000)">
                <g id="Footer-/-Social">
                    <g transform="translate(1126.000000, 39.000000)">
                        <g id="icons/facebook">
                            <polygon id="Path" points="0 0 48 0 48 48 0 48"></polygon>
                            <path d="M26.9315869,14.1014493 L26.9315869,19 L33.3940075,19 L32.5075046,26.1095652 L26.9315869,26.1095652 L26.9315869,44 L19.8103322,44 L19.8103322,26.1095652 L14,26.1095652 L14,19 L19.8103322,19 L19.8103322,13.3982609 C19.8103322,7.31246377 23.4164933,4 28.6815448,4 C31.2044522,4 33.3709596,4.19536232 34,4.28115942 L34,10.6405797 L30.3483051,10.6405797 C27.4847378,10.6405797 26.9315869,12.0469565 26.9315869,14.1014493" id="Fill-1" fill="#FFFFFF" fill-rule="evenodd"></path>
                        </g>
                    </g>
                </g>
            </g>
        </g>
    </g>
</svg>