<?xml version="1.0" encoding="UTF-8"?>
<svg width="40px" height="40px" viewBox="0 0 40 40" version="1.1" xmlns="http://www.w3.org/2000/svg" xmlns:xlink="http://www.w3.org/1999/xlink">
    <!-- Generator: Sketch 63.1 (92452) - https://sketch.com -->
    <title>icons/instagram</title>
    <desc>Created with Sketch.</desc>
    <g id="Symbols" stroke="none" stroke-width="1" fill="none" fill-rule="evenodd">
        <g id="Footer-/-Social" transform="translate(-62.000000, -4.000000)">
            <g id="icons/instagram" transform="translate(58.000000, 0.000000)">
                <polygon id="Path" points="0 0 48 0 48 48 0 48"></polygon>
                <path d="M34.6771784,15.7169326 C33.3475697,15.7169326 32.2854719,14.6459918 32.2854719,13.3253636 C32.2854719,12.0047355 33.3561777,10.9331324 34.6771784,10.9331324 C35.9981791,10.9331324 37.0688849,12.0047355 37.0688849,13.3253636 C37.0688849,14.6546018 35.9981791,15.7169326 34.6771784,15.7169326 M30.6704741,24.0003312 C30.6704741,20.3225737 27.6815031,17.3322847 24.0045523,17.3322847 C20.3282637,17.3322847 17.3386306,20.3225737 17.3386306,24.0003312 C17.3386306,27.6774263 20.3368717,30.667053 24.0045523,30.667053 C27.6722329,30.667053 30.6704741,27.6774263 30.6704741,24.0003312 M34.2580338,24.0003312 C34.2580338,29.676913 29.6798891,34.2553998 24.0045523,34.2553998 C18.3292156,34.2553998 13.7510708,29.676913 13.7510708,24.0003312 C13.7510708,18.3237493 18.3292156,13.7446002 24.0045523,13.7446002 C29.6798891,13.7446002 34.2580338,18.3237493 34.2580338,24.0003312 M40.3975417,24.0003312 C40.3975417,21.0901806 40.6379043,14.8426952 39.5943468,12.2093865 C38.889151,10.4509773 37.5416641,9.10385708 35.7929108,8.40711642 C33.1694498,7.37127766 26.9134024,7.60374531 24.0045523,7.60374531 C21.0957022,7.60374531 14.848925,7.36333005 12.216856,8.40711642 C10.4588325,9.11180469 9.11134562,10.4602495 8.4147578,12.2093865 C7.37980839,14.833423 7.61156289,21.0901806 7.61156289,24.0003312 C7.61156289,26.9098194 7.37120036,33.1579671 8.4147578,35.7912758 C9.11995365,37.5490227 10.4674406,38.8968052 12.216856,39.5928836 C14.840317,40.62806 21.0957022,40.3962547 24.0045523,40.3962547 C26.9134024,40.3962547 33.1601796,40.6373323 35.7929108,39.5928836 C37.5502721,38.887533 38.8984212,37.5397505 39.5943468,35.7912758 C40.6379043,33.166577 40.3975417,26.9098194 40.3975417,24.0003312 M43.8599541,32.2473032 C43.6990502,35.4515154 42.9673681,38.2901375 40.6292963,40.62806 C38.2912244,42.9759171 35.4532249,43.7077597 32.2497155,43.8594266 C28.948207,44.0468578 19.0522896,44.0468578 15.7507811,43.8594266 C12.5466096,43.6984875 9.71788027,42.9673072 7.37120036,40.62806 C5.0238583,38.2901375 4.29217622,35.4515154 4.14054255,32.2473032 C3.95315248,28.9450704 3.95315248,19.0463197 4.14054255,15.7440869 C4.3014464,12.5398747 5.0238583,9.70125258 7.37120036,7.36333005 C9.71788027,5.02408292 12.5558797,4.29224032 15.7507811,4.14057339 C19.0522896,3.9531422 28.948207,3.9531422 32.2497155,4.14057339 C35.4532249,4.30151253 38.2912244,5.03335513 40.6292963,7.37127766 C42.9759762,9.71052479 43.7076582,12.5484846 43.8599541,15.7533591 C44.046682,19.0555919 44.046682,28.9450704 43.8599541,32.2473032" id="Fill-4" fill="#FFFFFF" fill-rule="evenodd"></path>
            </g>
        </g>
    </g>
</svg>