<?xml version="1.0" encoding="UTF-8"?>
<svg width="44px" height="36px" viewBox="0 0 44 36" version="1.1" xmlns="http://www.w3.org/2000/svg" xmlns:xlink="http://www.w3.org/1999/xlink">
    <!-- Generator: Sketch 63.1 (92452) - https://sketch.com -->
    <title>icons/twitter</title>
    <desc>Created with Sketch.</desc>
    <g id="Symbols" stroke="none" stroke-width="1" fill="none" fill-rule="evenodd">
        <g id="Footer-/-Social" transform="translate(-118.000000, -6.000000)">
            <g id="icons/twitter" transform="translate(116.000000, 0.000000)">
                <polygon id="Path" points="0 0 48 0 48 48 0 48"></polygon>
                <path d="M41.5055581,16.1535661 C41.5055581,28.1623454 32.4318613,42 15.8480848,42 C10.7382716,42 5.9925796,40.5090202 2,37.9221284 C2.72569168,38.0062811 3.42396267,38.0345461 4.17771272,38.0345461 C8.39348396,38.0345461 12.2744677,36.6000964 15.3736431,34.1532449 C11.4084842,34.0690923 8.08611719,31.4526507 6.94146292,27.8533574 C7.50007971,27.93751 8.05805881,27.9940401 8.64473398,27.9940401 C9.45460079,27.9940401 10.2638299,27.8816224 11.01758,27.6844096 C6.88534616,26.8409557 3.7868085,23.1844899 3.7868085,18.7687229 L3.7868085,18.6563052 C4.98694184,19.3314538 6.38284613,19.7535019 7.86292555,19.8093896 C5.43396281,18.177727 3.84228757,15.3936225 3.84228757,12.2439999 C3.84228757,10.5564497 4.28930854,9.00958227 5.07111697,7.65928517 C9.51007986,13.1716065 16.1828722,16.7721847 23.6648937,17.1653254 C23.5252395,16.4901768 23.4417021,15.788048 23.4417021,15.0846345 C23.4417021,10.0785139 27.46234,6 32.459282,6 C35.0559573,6 37.4007449,7.0971967 39.0485369,8.86889956 C41.0865955,8.47511643 43.0411165,7.71581521 44.7718083,6.67514855 C44.1015957,8.78474688 42.677633,10.5564497 40.8072871,11.6812691 C42.6221539,11.4840563 44.3809041,10.9778555 46,10.2757267 C44.772446,12.0750522 43.2362498,13.6778073 41.4774997,14.9722168 C41.5055581,15.3653575 41.5055581,15.759783 41.5055581,16.1535661" id="Fill-6" fill="#FFFFFF" fill-rule="evenodd"></path>
            </g>
        </g>
    </g>
</svg>