<?xml version="1.0" encoding="UTF-8"?>
<svg width="87px" height="33px" viewBox="0 0 87 33" version="1.1" xmlns="http://www.w3.org/2000/svg" xmlns:xlink="http://www.w3.org/1999/xlink">
    <!-- Generator: sketchtool 62 (101010) - https://sketch.com -->
    <title>F2C742DA-3632-4603-91A6-E64CE6EA3779@1.00x</title>
    <desc>Created with sketchtool.</desc>
    <g id="Mobile-Phase-2" stroke="none" stroke-width="1" fill="none" fill-rule="evenodd">
        <g id="Desktop-HomePage1-Sponsored" transform="translate(-753.000000, -1493.000000)" fill="#FFFFFF">
            <g id="Group-15" transform="translate(753.000000, 1493.000000)">
                <path d="M4.32648434,15.2711113 C4.32648434,15.2711113 4.62110569,10.0257707 10.5405476,10.0241812 C16.4383776,10.0225925 16.4383776,15.2711113 16.4383776,15.2711113 L4.32648434,15.2711113 Z M10.6422508,7.28518792 C0.35084413,7.28328133 -0.0489764294,15.2946302 0.00346426399,17.3744599 C0.00346426399,17.3744599 -0.500602038,26.7403677 10.3902176,26.7403677 C19.7481799,26.7403677 20.2090224,20.863514 20.2090224,20.863514 L15.9034825,20.872413 C15.9034825,20.872413 15.0650671,24.1097518 10.4080157,24.0233041 C4.42087759,23.9117485 4.18854942,18.11149 4.18854942,18.11149 L20.7747462,18.11149 C20.7747462,18.11149 22.0333228,7.28741302 10.6422508,7.28518792 L10.6422508,7.28518792 Z" id="Fill-1"></path>
                <path d="M31.3441839,23.9440392 C24.8094378,24.0260374 24.9155905,17.0129687 24.9155905,17.0129687 C24.9155905,17.0129687 24.6775415,10.2627391 31.3336957,10.089208 C37.9895321,9.91567701 37.7727772,17.15726 37.7727772,17.15726 C37.7727772,17.15726 37.8792477,23.8614054 31.3441839,23.9440392 M32.2944728,7.28506113 C27.1200065,7.25613929 24.8939786,10.3495046 24.8939786,10.3495046 L24.8939786,0.000254257908 L20.7457608,0.000254257908 L20.8159995,21.8727908 C20.8159995,21.8727908 20.7908916,24.4207728 20.6338873,26.1045958 L24.6632395,26.1045958 L24.8358171,23.6471931 C24.8358171,23.6471931 26.7154186,26.7405584 32.2077073,26.7405584 C37.7006315,26.7405584 42.037318,23.3579748 42.1530053,17.0851144 C42.268057,10.8119361 37.4695747,7.31398297 32.2944728,7.28506113" id="Fill-4"></path>
                <path d="M50.4782356,24.0951638 C50.4782356,24.0951638 46.3204831,24.1002489 46.0763955,20.7780516 C45.8167346,17.2330607 52.4728888,17.4463195 52.4728888,17.4463195 L57.1757067,17.4415522 C57.1757067,17.4415522 57.9372091,24.1930531 50.4782356,24.0951638 M61.3191571,21.786502 C61.3296452,18.9572471 61.412279,16.430877 61.3191571,14.6488469 C61.2104618,12.5826835 61.4062404,7.59573251 52.4728888,7.22737637 C52.4728888,7.22737637 43.9088469,6.44680459 43.0195798,12.8210503 L47.3994901,12.8210503 C47.3994901,12.8210503 47.7398779,9.90058044 52.1843061,9.98480338 C56.3903675,10.064259 57.1566373,12.1272441 57.1347076,14.6641023 C57.1347076,14.6641023 53.5299661,14.6742727 52.3266905,14.6803113 C50.1588241,14.6911172 42.5714503,14.931391 41.863342,19.5528463 C41.0207949,25.0479953 45.9254299,26.7623292 49.7628174,26.7403995 C53.6005227,26.7187876 55.7900011,25.5698596 57.4162982,23.5100528 L57.590147,26.0682051 L61.4062404,26.0465932 C61.4062404,26.0465932 61.3077155,24.6160747 61.3191571,21.786502" id="Fill-6"></path>
                <polygon id="Fill-8" points="59.0498417 7.9788674 63.8629439 7.9788674 70.9020741 22.0142217 77.9561419 7.9788674 82.3071303 7.9788674 69.5719874 32.9991168 64.918432 32.9991168 68.6042182 26.0464343"></polygon>
                <path d="M83.9358747,8.98061177 L83.9358747,8.46256128 L83.7756922,8.46256128 L83.7756922,8.26837181 L83.9358747,8.26837181 L83.9358747,7.99822278 L84.2254109,7.99822278 L84.2254109,8.26837181 L84.5648452,8.26837181 L84.5648452,8.46256128 L84.2254109,8.46256128 L84.2254109,8.94533349 C84.2254109,9.03305246 84.2826189,9.06833075 84.3805082,9.06833075 C84.445344,9.06833075 84.5031877,9.05720696 84.5603957,9.03464158 L84.5603957,9.21929638 C84.4885678,9.25107862 84.4097479,9.26983014 84.2997813,9.26983014 C84.0862047,9.26983014 83.9358747,9.19704881 83.9358747,8.98061177" id="Fill-10"></path>
                <g id="Group-14" transform="translate(84.858577, 8.209034)">
                    <path d="M0.000985249392,0.0594327859 L0.290521442,0.0594327859 L0.290521442,0.208491484 C0.371883972,0.121090328 0.482168339,0.0390921533 0.676039994,0.0390921533 C0.857198753,0.0390921533 0.986870286,0.108059611 1.05361299,0.212305353 C1.15404486,0.108059611 1.28848373,0.0390921533 1.4798128,0.0390921533 C1.75441134,0.0390921533 1.92253939,0.175120134 1.92253939,0.415711679 L1.92253939,1.04372871 L1.63300319,1.04372871 L1.63300319,0.484679136 C1.63300319,0.327992701 1.53956341,0.244087591 1.37715617,0.244087591 C1.2185628,0.244087591 1.10668932,0.329899635 1.10668932,0.488175182 L1.10668932,1.04372871 L0.81683531,1.04372871 L0.81683531,0.482772202 C0.81683531,0.329899635 0.721170773,0.244087591 0.561306113,0.244087591 C0.401123631,0.244087591 0.290521442,0.337527372 0.290521442,0.488175182 L0.290521442,1.04372871 L0.000985249392,1.04372871 L0.000985249392,0.0594327859 Z" id="Fill-12"></path>
                </g>
            </g>
        </g>
    </g>
</svg>