<?xml version="1.0" encoding="UTF-8"?>
<svg width="70px" height="70px" viewBox="0 0 70 70" version="1.1" xmlns="http://www.w3.org/2000/svg" xmlns:xlink="http://www.w3.org/1999/xlink">
    <!-- Generator: sketchtool 62 (101010) - https://sketch.com -->
    <title>60BE27D2-F4AE-46B0-A826-F89F3B7F10CC@1.00x</title>
    <desc>Created with sketchtool.</desc>
    <g id="Mobile-Phase-2" stroke="none" stroke-width="1" fill="none" fill-rule="evenodd">
        <g id="Desktop-HomePage1-Unsponsored" transform="translate(-1087.000000, -1400.000000)">
            <g id="Group-10" transform="translate(1087.821559, 1400.650401)">
                <polygon id="Fill-1" fill="#FEFEFE" points="0 68.3584794 68.3584794 68.3584794 68.3584794 0 0 0"></polygon>
                <polygon id="Fill-2" fill="#FFFFFF" points="1.00539692 67.3342867 67.3530825 67.3342867 67.3530825 1.0241927 1.00539692 1.0241927"></polygon>
                <g id="Group-9" transform="translate(13.476220, 16.936062)" fill="#20A9F4">
                    <path d="M36.5868728,0.694202637 L31.1148183,0.694202637 L31.1148183,1.22615868 L32.5592562,1.22615868 L32.5592562,33.260197 L31.1148183,33.260197 L31.1148183,33.8300992 L37.2709682,33.8300992 L37.2709682,33.260197 L35.1810903,33.260197 L35.1810903,20.22621 L37.0049902,20.22621 C39.588878,20.22621 41.0712622,18.8580191 41.0712622,16.9961729 L41.0712622,4.19021775 C41.0712622,2.32801696 39.8169099,0.694202637 36.5868728,0.694202637 L36.5868728,0.694202637 Z M35.1810903,1.22615868 L36.5492812,1.22615868 C37.8791713,1.18821248 38.4490735,2.404264 38.4490735,3.35398285 L38.4490735,17.6040213 C38.4866651,18.6303419 37.8791713,19.5800607 36.701066,19.5800607 L35.1810903,19.5800607 L35.1810903,1.22615868 Z" id="Fill-3"></path>
                    <path d="M7.63112223,1.1122137 C7.63112223,1.64416974 7.32719801,1.60622354 7.09916618,1.41613792 C6.18703889,0.808289476 5.1231268,0.352225828 4.13510711,0.352225828 C2.53923898,0.352225828 0.296866936,1.15015989 0.258920738,4.49439022 L0.258920738,29.0420338 C0.296866936,33.3363376 2.34915335,34.1342717 4.36313893,34.1342717 C5.95900706,34.1722179 6.71899493,33.3363376 7.32719801,33.0320588 C7.66906842,32.9182202 8.04923968,33.2221444 8.04923968,33.8682937 L8.69503431,33.8682937 L8.69503431,18.2504189 L10.0249244,18.2504189 L10.0249244,17.7184628 L4.47697753,17.7184628 L4.47697753,18.2504189 L6.07284566,18.2504189 L6.07284566,31.6642225 C6.07284566,32.7660807 5.35115862,33.6023156 4.40108513,33.6023156 C3.48895783,33.6023156 2.805217,32.7281345 2.805217,31.6642225 L2.805217,3.50601589 C2.805217,2.74602802 2.95700179,0.960074267 4.13510711,0.960074267 C6.41507071,0.960074267 7.63112223,7.64818028 7.63112223,11.1062492 L8.27691686,11.1062492 L8.27691686,0.656150048 L7.63112223,0.656150048 L7.63112223,1.1122137 Z" id="Fill-5"></path>
                    <path d="M21.007086,20.1883347 L22.4891155,33.2599133 L21.0450322,33.2599133 L21.0450322,33.8301701 L26.5170867,33.8301701 L26.5170867,33.2599133 L25.0730034,33.2599133 L21.4252035,0.656327366 L19.1072937,0.656327366 L15.6871709,31.436368 C15.4970853,32.5382262 15.4211929,33.2223217 13.8249701,33.2599133 L13.8249701,33.8301701 L17.9288337,33.8301701 L17.9288337,33.2599133 C16.751083,33.2599133 16.219127,32.50028 16.3329656,31.7402922 L17.6249095,20.1883347 L21.007086,20.1883347 Z M17.7011565,19.6184325 L19.2970247,5.29214697 L20.930839,19.6184325 L17.7011565,19.6184325 Z" id="Fill-7"></path>
                </g>
            </g>
        </g>
    </g>
</svg>