<?xml version="1.0" encoding="UTF-8"?>
<svg width="73px" height="73px" viewBox="0 0 73 73" version="1.1" xmlns="http://www.w3.org/2000/svg" xmlns:xlink="http://www.w3.org/1999/xlink">
    <!-- Generator: sketchtool 62 (101010) - https://sketch.com -->
    <title>4DCC0B50-06C7-42EE-9777-D78C22A9CC28@1.00x</title>
    <desc>Created with sketchtool.</desc>
    <g id="Mobile-Phase-2" stroke="none" stroke-width="1" fill="none" fill-rule="evenodd">
        <g id="Desktop-HomePage1-Unsponsored" transform="translate(-598.000000, -1401.000000)">
            <g id="Home-Depot" transform="translate(597.755280, 1401.563001)">
                <polygon id="Fill-2" fill="#FFFFFF" points="2.12003079 72.1688391 72.6105248 72.1688391 72.6105248 0.839172548 2.12003079 0.839172548"></polygon>
                <g id="Group-33" transform="translate(0.441686, 0.000000)" fill="#20A9F4">
                    <path d="M15.8349845,71.9633414 L13.4262985,71.9633414 C13.4323434,71.9507017 13.4387913,71.9380619 13.4452392,71.9254222 C13.9441438,70.9574627 13.7990665,70.8498211 13.02653,70.0673804 L2.06876183,58.9823282 C1.29340432,58.1974411 1.19064124,58.0494339 0.230310195,58.5554312 L0.202906707,58.5697019 L0.202906707,56.1314552 L5.23668561,51.0392709 C5.32010505,50.9569087 6.04952141,50.3000499 6.65401011,50.9112425 C6.94658264,51.2097035 6.95020957,51.588488 6.7616091,51.9472935 C6.25907749,52.9217767 6.40616974,53.0257487 7.18152725,53.8106358 L18.1380864,64.8936493 C18.911832,65.6789441 19.014998,65.8269514 19.9765381,65.3197309 C20.3311714,65.1289116 20.7075664,65.1289116 20.9997359,65.4261493 C21.6046276,66.0406038 20.9582277,66.7777861 20.8756142,66.8621869 L15.8349845,71.9633414 Z M15.91518,57.0296922 L14.0771313,58.8885495 L12.8681539,57.6624947 L14.7021727,55.8040452 L9.95330943,51.0013516 C9.18278784,50.2201341 9.07720381,50.0725346 8.11566379,50.576901 C7.76344837,50.768128 7.38342647,50.7656816 7.09367489,50.4692593 C6.48757422,49.8564358 7.13478012,49.1217 7.21900555,49.034445 L13.1232482,43.0607407 C13.2066676,42.9763398 13.935278,42.3231507 14.5417817,42.9327123 C14.8351602,43.2307656 14.8371751,43.6107732 14.6489777,43.9687633 C14.146849,44.9408001 14.2939413,45.0455876 15.0672838,45.8272128 L26.02344,56.9151191 C26.7959766,57.6991907 26.9007546,57.8480135 27.8626976,57.3379388 C28.218137,57.1499736 28.591711,57.1516046 28.8858955,57.4463959 C29.4903842,58.0604427 28.8464022,58.7996636 28.7633858,58.8848799 L22.8575312,64.8569533 C22.7729028,64.9409464 22.0422774,65.5945433 21.4365798,64.9841661 C21.1456192,64.6857052 21.1452162,64.306513 21.3301898,63.946892 C21.8335273,62.9760784 21.6860321,62.8696599 20.9130925,62.0872192 L15.91518,57.0296922 Z" id="Fill-3"></path>
                    <path d="M59.349305,10.4214658 C59.9957049,9.30264491 59.5753838,8.07699784 58.9680741,7.08172024 C58.7210398,6.61935039 58.5102747,6.15127227 58.9471185,5.70806589 C59.5931155,5.05691541 60.2451573,5.92171828 60.4123991,6.0909277 L64.9263178,10.6591744 C65.0939626,10.8275684 65.9503216,11.4860581 65.3055337,12.1392472 C64.8658689,12.5844923 64.4072635,12.3679858 63.9446281,12.1160064 C62.9621325,11.5035906 61.7511401,11.0815864 60.6457318,11.7315137 L59.349305,10.4214658 Z M71.0280267,12.5294483 L71.0280267,16.1211731 L68.0039712,19.1787671 L66.7937849,17.95312 C68.2755882,16.0306563 68.4162325,13.5585677 67.3076002,11.2976852 C67.1399554,10.8316457 66.9303993,10.3656063 67.3055853,9.98763728 C67.9745528,9.31120731 68.5375333,10.0100626 68.6205497,10.0960944 L71.0280267,12.5294483 Z M55.3802322,0.304780832 L58.656158,0.304780832 L61.2611013,2.94200146 C61.3662823,3.04719672 61.7442892,3.47287055 61.11683,4.10281889 C60.7609876,4.46366309 60.4474595,4.35765236 60.0299593,4.14766958 C57.7953661,2.97869748 55.7054471,3.0227327 53.5768409,4.58312902 L52.3630276,3.35748195 L55.3802322,0.304780832 Z M45.9187751,9.87958789 L51.4236522,4.30750113 L67.0666108,20.127563 L61.5585097,25.7029117 C61.4746873,25.7873125 60.742047,26.4413171 60.1375583,25.8289013 C59.8445828,25.5320713 59.8445828,25.150025 60.0323773,24.7928504 C60.5324909,23.8212213 60.3882196,23.7152106 59.6132651,22.9307312 L48.653885,11.8452714 C47.8805424,11.0648693 47.7769734,10.9152311 46.8158363,11.4228594 C46.4608,11.6124555 46.084002,11.6124555 45.7930414,11.3156255 C45.1865378,10.7048406 45.8353557,9.96276553 45.9187751,9.87958789 L45.9187751,9.87958789 Z" id="Fill-5"></path>
                    <path d="M39.9383669,69.3505032 L37.3551852,71.9632598 L35.9813839,71.9632598 C36.0176532,71.8804899 36.0623853,71.7952736 36.1042966,71.7047568 C36.2590457,71.4099654 35.9177111,71.1094658 35.7420063,70.9321017 L29.5818635,64.6986711 C29.4045468,64.5208993 29.1119743,64.1763644 28.8185958,64.3308954 C28.5010377,64.4854265 28.2427195,64.675838 27.9473261,64.3798235 C27.6426637,64.0707614 27.9009819,63.7356045 28.1363295,63.4999345 L31.1454743,60.455388 L39.9383669,69.3505032 Z" id="Fill-7"></path>
                    <path d="M57.4189308,33.8721388 L59.1110962,32.1600656 L59.7941684,32.8495431 C59.6160457,33.9088349 60.2281913,34.858854 60.7456336,35.596444 C60.9688914,35.8940895 61.2143139,36.2630884 60.885875,36.5949835 C60.5336596,36.9521581 60.2052207,36.6920241 60.1568616,36.6426883 L57.4189308,33.8721388 Z M67.4812497,29.2329465 C67.5283998,29.2814667 67.787121,29.6137696 67.4332936,29.9701287 C67.1044517,30.3024316 66.7401466,30.0541218 66.447574,29.8261988 C65.7181577,29.3051153 64.7771703,28.6869912 63.7318078,28.866394 L63.0487356,28.1761011 L64.7417069,26.4619892 L67.4812497,29.2329465 Z M59.6390163,31.6247115 L62.5204124,28.7106398 L69.9963257,36.2749127 C70.4303486,36.7152649 70.4912004,36.7984426 71.0283894,36.5138445 L71.0283894,37.8956535 L68.2098601,40.7461188 C68.16271,40.7938237 67.7516576,41.1640457 67.410323,40.8170645 C67.2463051,40.6515246 67.2454991,40.43828 67.3510831,40.2356364 C67.6343868,39.6892735 67.5509674,39.6297444 67.1173475,39.1897998 L59.6390163,31.6247115 Z" id="Fill-9"></path>
                    <path d="M67.4284174,68.3212206 C67.7234079,68.3212206 67.9869649,68.2996108 67.9869649,67.9428439 C67.9869649,67.6553918 67.7290498,67.6019787 67.4860453,67.6019787 L67.0121262,67.6019787 L67.0125292,68.3212206 L67.4284174,68.3212206 Z M67.0125292,69.6271912 L66.6655526,69.6271912 L66.6647467,67.3035177 L67.5392403,67.3035177 C68.0820712,67.3035177 68.3496582,67.5057535 68.3496582,67.9644538 C68.3496582,68.3795265 68.091743,68.5617834 67.7556473,68.6033723 L68.4084951,69.6271912 L68.0183984,69.6271912 L67.4122977,68.6200893 L67.0121262,68.6200893 L67.0125292,69.6271912 Z M67.4332533,70.1437896 C68.3347474,70.1437896 69.0456262,69.4298482 69.0456262,68.4594423 C69.0456262,67.5057535 68.3347474,66.787327 67.4332533,66.787327 C66.5220873,66.787327 65.8112086,67.5057535 65.8120139,68.4594423 C65.8120139,69.4298482 66.5220873,70.1437896 67.4332533,70.1437896 L67.4332533,70.1437896 Z M65.4114401,68.4594423 C65.4114401,67.3035177 66.3379198,66.4513546 67.4332533,66.4513546 C68.517706,66.4513546 69.4453947,67.3035177 69.4453947,68.4594423 C69.4453947,69.6271912 68.517706,70.4793544 67.4332533,70.4793544 C66.3387258,70.4793544 65.4114401,69.6271912 65.4114401,68.4594423 L65.4114401,68.4594423 Z" id="Fill-11"></path>
                    <path d="M36.314981,49.4249314 C36.9400223,48.0745179 36.3963855,47.352014 35.8704803,46.8244068 L25.0424758,35.8649366 C24.5189885,35.3373294 23.8069009,34.7877045 22.4738018,35.4209147 L21.2603915,34.1948599 C26.0793754,30.1207863 31.7216729,31.646933 35.8821671,35.8563742 C40.0422583,40.0670386 41.5526741,45.7728619 37.5263764,50.6509862 L36.314981,49.4249314 Z M21.5332174,36.3697107 C20.9069671,37.7209397 21.4518129,38.439774 21.9753001,38.9681967 L32.8053196,49.9260359 C33.3280009,50.4556818 34.0400886,51.0057144 35.3747996,50.3729119 L36.5874039,51.6010054 C31.766808,55.6734481 26.1273315,54.1468937 21.9652253,49.9374525 C17.805134,45.7267881 16.2951213,40.0193338 20.321016,35.1428405 L21.5332174,36.3697107 Z" id="Fill-13"></path>
                    <path d="M59.369777,26.6057968 C59.0755925,26.3122287 58.7012125,26.3085591 58.3449672,26.5001939 C57.3838302,27.0061912 57.2818731,26.8585916 56.5069186,26.0749278 L45.5491504,14.9902833 C44.7741959,14.2078427 44.6267006,14.1030551 45.1308442,13.1285719 C45.3150118,12.7709896 45.3150118,12.3889433 45.0236482,12.0933364 C44.4179505,11.4801052 43.6881312,12.135333 43.6063237,12.2189184 L38.0962077,17.7914129 L42.5956186,26.2286433 L42.5520954,26.2686012 L33.9042801,22.0355114 L28.6069441,27.395169 C28.3570888,27.6471483 27.7284205,28.2803586 28.3752235,28.9372173 C28.8765461,29.4460688 29.4834527,28.9180538 29.7538607,28.6844225 C30.1302556,28.3480423 30.4663514,28.516844 30.965659,28.6448723 C31.4045178,28.7508831 31.822824,28.9633123 32.2411302,29.1769646 L49.5403878,37.8572043 L50.1448765,37.2460117 L41.6828407,21.4218724 L51.3929442,31.2462124 C52.1670927,32.0298763 52.3133789,32.1367025 51.8120563,33.1062929 C51.6222469,33.4679526 51.6250678,33.846737 51.9208643,34.1427516 C52.524144,34.7547597 53.2543664,34.1027937 53.3385918,34.0167619 L59.2460583,28.0422422 C59.3306868,27.9570258 59.9742657,27.2178049 59.369777,26.6057968" id="Fill-15"></path>
                    <path d="M43.0257325,37.7650973 L39.4298307,34.1272985 L34.812746,31.8183034 L34.7708348,31.8615231 L41.8151431,38.9907443 C44.0948715,41.9724998 41.9461157,42.4992916 42.8464008,43.4097606 C43.4936067,44.0629497 44.3060395,43.1553349 44.5349393,42.9212958 L46.9138038,40.5181142 C47.1427035,40.2852984 48.0381528,39.4653462 47.3893349,38.8093029 C46.4910647,37.8988339 45.9728164,40.0728692 43.0257325,37.7650973" id="Fill-17"></path>
                    <path d="M31.6736765,59.9184845 C33.6483396,57.871662 36.7042314,57.5866563 39.8794091,60.5149987 C42.770477,63.177091 42.4190676,66.840577 40.4673751,68.8152306 L39.7855118,68.1253454 C40.4093442,67.3033546 39.7738251,66.5894131 39.3256974,66.1392753 L34.318919,61.0711472 C33.8720004,60.6201939 33.1667636,59.9784213 32.3567487,60.6083696 L31.6736765,59.9184845 Z" id="Fill-19"></path>
                    <path d="M43.6148672,55.7802335 C43.9795753,55.1511007 43.7450337,54.4624387 43.4041021,53.9030282 C43.2614428,53.6408556 43.143769,53.377052 43.3916093,53.1271113 C43.7567205,52.7597434 44.1214287,53.2473927 44.2157289,53.3428023 L46.7553875,55.9131547 C46.8480757,56.0065257 47.3304577,56.3755245 46.9645405,56.7449311 C46.7195211,56.9952795 46.460397,56.8762213 46.2008698,56.7318836 C45.6491731,56.3889797 44.9685189,56.1500479 44.3446865,56.5190467 L43.6148672,55.7802335 Z M47.8007499,60.0161774 C48.6349443,58.9340526 48.7179608,57.5416425 48.0945314,56.2670674 C48.0018431,56.0065257 47.8817514,55.7451684 48.0933224,55.5315161 C48.4709264,55.1506929 48.7880815,55.5429326 48.8348286,55.5910452 L51.1870956,57.9705782 L48.4834191,60.7060626 L47.8007499,60.0161774 Z M39.6897205,51.8089087 L42.3103805,49.1574174 L44.6973049,51.5699769 C44.7553358,51.6303214 44.9685189,51.8676223 44.6150945,52.2256124 C44.4144042,52.4278482 44.2407145,52.3687269 44.0045609,52.249261 C42.7452094,51.5952563 41.5712924,51.6193126 40.3707778,52.4975707 L39.6897205,51.8089087 Z M36.0571464,55.4834035 L39.1597854,52.3442629 L47.9534841,61.2414168 L44.8504421,64.3805574 C44.8032919,64.427039 44.3918366,64.7960379 44.050099,64.4523185 C43.8868871,64.2851477 43.8856781,64.0710876 43.9912621,63.8692595 C44.2745658,63.3228966 44.1919524,63.2633675 43.7575265,62.8221997 L37.5977866,56.5895846 C37.1625548,56.1508633 37.1025089,56.0668702 36.563305,56.3506528 C36.3626147,56.4603331 36.1510437,56.4599254 35.9858168,56.2935701 C35.6456911,55.9490352 36.0108023,55.5307006 36.0571464,55.4834035 L36.0571464,55.4834035 Z" id="Fill-21"></path>
                    <path d="M44.7542075,49.3500715 C44.3193786,48.9097193 44.2605417,48.8269494 43.7193228,49.1107319 C43.5198415,49.2195968 43.3086735,49.2171504 43.1438496,49.0499796 C42.8037239,48.7062602 43.1676261,48.2887411 43.2147762,48.241444 L46.3178182,45.1031188 L53.7961494,52.6686149 C54.2289633,53.1065207 54.2882032,53.1921448 54.8290191,52.9051004 C55.0297094,52.7986819 55.2412804,52.7974587 55.4061043,52.9634063 C55.7478419,53.3083489 55.3831338,53.7250526 55.3355807,53.7723496 L52.0084748,57.1385979 C51.9625337,57.1883414 51.6425577,57.4623383 51.3016261,57.1186189 C51.1372051,56.9510404 51.1085927,56.7647062 51.2141767,56.5616549 C51.4966744,56.0161074 51.3487762,56.0210002 50.9143503,55.5798325 L44.7542075,49.3500715 Z M46.8473503,44.5669492 C47.9648484,43.4354886 48.7406089,42.8870869 49.6118787,42.6518247 C51.0001877,42.2938346 52.1160738,42.7341869 53.1046144,43.7319109 C54.0907369,44.7300426 54.5259688,45.8615032 54.1733504,47.2657376 C53.9371968,48.1468498 53.3971869,48.9325524 52.2792858,50.0615666 L51.5974225,49.3737201 C52.161612,48.538274 51.7163053,48.0155596 51.1408321,47.4312774 L49.3652473,45.6356188 C48.8361182,45.1018956 48.2469432,44.720257 47.5296166,45.2564266 L46.8473503,44.5669492 Z" id="Fill-23"></path>
                    <path d="M62.6094335,45.3893885 C62.9620519,44.6289655 62.6569866,44.225717 62.3623991,43.9264405 L56.2731829,37.766402 C55.9785954,37.4671256 55.5800359,37.158879 54.827246,37.5148304 L54.1461887,36.8261684 C56.8623579,34.5294053 60.0359236,35.3872767 62.3740859,37.75417 C64.7138601,40.1210633 65.5625623,43.3303341 63.2925057,46.0796814 L62.6094335,45.3893885 Z M54.2997288,38.052631 C53.9463044,38.8134618 54.2509667,39.2167103 54.5443452,39.5135403 L60.6355764,45.6743943 C60.9297609,45.9724475 61.3287234,46.2815096 62.0807074,45.924335 L62.7633766,46.6138124 C60.0480134,48.9109832 56.8736417,48.0555583 54.5354794,45.687034 C52.1940932,43.3205485 51.348212,40.109239 53.6166566,37.3611149 L54.2997288,38.052631 Z" id="Fill-25"></path>
                    <path d="M6.60174199,29.5515087 L8.19315924,27.9413689 L8.83391726,28.590073 C8.66788436,29.5849428 9.24255162,30.4791025 9.72896353,31.1726573 C9.9389226,31.4519548 10.1706433,31.7985283 9.86154805,32.1112599 C9.52988525,32.4472324 9.22079003,32.2009613 9.17646085,32.1557029 L6.60174199,29.5515087 Z M16.0603782,25.1916138 C16.1047073,25.2360567 16.3473088,25.5487884 16.016049,25.8843531 C15.7061478,26.1974925 15.3636042,25.9626379 15.0879573,25.7506165 C14.4024672,25.2584821 13.5187047,24.6766463 12.5354031,24.8446325 L11.894645,24.1963362 L13.4860623,22.5870118 L16.0603782,25.1916138 Z M8.69045194,27.4382257 L11.3973523,24.6998871 L18.424332,31.8095371 C18.8333693,32.2233867 18.8889823,32.3012638 19.3967528,32.0333828 C19.5845473,31.9322649 19.7836256,31.9322649 19.9383747,32.0892423 C20.2587537,32.4129828 19.9162101,32.804407 19.8722839,32.8492577 L16.7450624,36.01327 C16.7011362,36.057713 16.3146664,36.4046943 15.9938844,36.0797306 C15.8387323,35.9239764 15.8387323,35.722556 15.9386744,35.5321445 C16.2034405,35.0179924 16.1264689,34.9621329 15.7174316,34.5486911 L8.69045194,27.4382257 Z" id="Fill-27"></path>
                    <path d="M22.9991025,21.8375976 L22.0266816,22.8214586 L21.3859236,22.1727545 L22.3579414,21.1893012 L19.8501193,18.6515676 C19.441082,18.2381257 19.385872,18.1594332 18.8776985,18.4281296 C18.689904,18.5288398 18.4912287,18.5288398 18.3360766,18.3718624 C18.0156976,18.0481219 18.3582412,17.6566977 18.4025704,17.611847 L21.5293889,14.4482424 C21.5737181,14.4033917 21.9605909,14.0568182 22.2809699,14.3809663 C22.435316,14.5379437 22.435316,14.7389564 22.3361798,14.9289602 C22.0710108,15.4427045 22.1483854,15.4993795 22.5570197,15.9128213 L28.3472155,21.7707293 C28.7558498,22.1841711 28.8110598,22.2620482 29.3192333,21.9941673 C29.5070278,21.8934571 29.7061061,21.8934571 29.8604522,22.0500267 C30.1812342,22.3741749 29.8386906,22.7655991 29.7943614,22.8100421 L26.6675429,25.9740545 C26.6232137,26.0189052 26.2367439,26.365071 25.9159619,26.0409228 C25.7616158,25.8847608 25.7616158,25.6833405 25.860752,25.4933366 C26.125921,24.9791846 26.0485464,24.9229174 25.6399121,24.5098833 L22.9991025,21.8375976 Z M24.1701986,25.9968876 C24.5788329,26.4099216 24.6344459,26.4882065 25.1422164,26.2199178 C25.3304139,26.1196154 25.5290892,26.1196154 25.6838383,26.2757773 C26.0042173,26.5999255 25.6612707,26.9913497 25.6177475,27.0362004 L22.490526,30.199805 C22.4461968,30.2446557 22.059324,30.5912292 21.739348,30.2670811 C21.5850019,30.1105114 21.5845989,29.909091 21.684138,29.7186794 C21.9493071,29.2049352 21.8719325,29.1490757 21.4632982,28.7352261 L15.6735054,22.8773181 C15.264871,22.4638763 15.2092581,22.3855915 14.7010846,22.6534724 C14.5124841,22.7545903 14.3142118,22.7545903 14.1594627,22.5976129 C13.8390837,22.2734647 14.1816273,21.8820405 14.2255535,21.8375976 L17.352775,18.6735852 C17.3971042,18.6291422 17.7839769,18.282161 18.103953,18.6067169 C18.2591051,18.7632866 18.2591051,18.9647069 18.1587599,19.1547108 C17.8943969,19.6684551 17.9713684,19.72513 18.3808088,20.1381641 L24.1701986,25.9968876 Z" id="Fill-29"></path>
                    <path d="M29.6758413,13.6733855 C30.0179819,13.0813564 29.7971421,12.43306 29.4767631,11.9074915 C29.3441785,11.6616282 29.2337586,11.4157648 29.4654793,11.1809103 C29.8084259,10.8343368 30.1509695,11.2926293 30.2392248,11.3823307 L32.6257462,13.7969288 C32.7144045,13.8862224 33.1673681,14.2332037 32.8252275,14.5793695 C32.5927008,14.814224 32.3496964,14.702505 32.1062889,14.5679529 C31.5868316,14.2442125 30.9460736,14.0203668 30.3609285,14.367348 L29.6758413,13.6733855 Z M33.6094508,17.6536805 C34.3936741,16.6363853 34.4710487,15.3287837 33.8855006,14.1320858 C33.7972453,13.8862224 33.6864224,13.6399514 33.8855006,13.4393465 C34.238925,13.0813564 34.5371395,13.4503553 34.5810656,13.495206 L36.7910763,15.730809 L34.2502088,18.3023846 L33.6094508,17.6536805 Z M25.9856393,9.94017709 L28.4495353,7.44729414 L30.6921883,9.71673911 C30.7473983,9.7725986 30.9460736,9.99562886 30.6148138,10.3311936 C30.4266163,10.5211974 30.2613894,10.4653379 30.0405495,10.3536189 C28.8577666,9.73916445 27.7531643,9.76077433 26.6263973,10.5880657 L25.9856393,9.94017709 Z M22.5710842,13.394088 L25.4879436,10.4433203 L33.7529161,18.80512 L30.8360566,21.7567032 C30.7921305,21.8015539 30.4052577,22.1477197 30.0844757,21.8235715 C29.9297266,21.6670018 29.9297266,21.4659892 30.0292657,21.2759854 C30.2944348,20.7614256 30.2170602,20.7055661 29.8084259,20.2921243 L24.0182301,14.4338086 C23.6095957,14.0207745 23.5543858,13.9416742 23.0458093,14.2103706 C22.8584178,14.3110808 22.6593395,14.3110808 22.5049934,14.1549188 C22.1842114,13.8303629 22.526755,13.4393465 22.5710842,13.394088 L22.5710842,13.394088 Z" id="Fill-31"></path>
                </g>
            </g>
        </g>
    </g>
</svg>