<?xml version="1.0" encoding="UTF-8"?>
<svg width="102px" height="91px" viewBox="0 0 102 91" version="1.1" xmlns="http://www.w3.org/2000/svg" xmlns:xlink="http://www.w3.org/1999/xlink">
    <!-- Generator: sketchtool 62 (101010) - https://sketch.com -->
    <title>7D4BCD53-DC0A-4912-962D-8C9CDCBE608E@1.00x</title>
    <desc>Created with sketchtool.</desc>
    <defs>
        <polygon id="path-1" points="0 0.771042144 101.999675 0.771042144 101.999675 91.5465698 0 91.5465698"></polygon>
    </defs>
    <g id="Mobile-Phase-2" stroke="none" stroke-width="1" fill="none" fill-rule="evenodd">
        <g id="Desktop-HomePage1-Unsponsored" transform="translate(-1154.000000, -1949.000000)">
            <g id="Icon/Referral/fill" transform="translate(1154.000000, 1948.000000)">
                <g id="Group-6" transform="translate(0.000000, 0.000000)">
                    <path d="M53.146284,62.7973927 L53.146284,68.1823833 L49.055064,68.1823833 L49.055064,62.8523208 C45.538104,62.4495145 42.023184,60.8433755 39.522144,58.4712942 L39.078444,58.0501786 L41.300004,53.6213442 L42.110904,54.4167848 C44.222304,56.4867614 47.152764,57.8589473 49.949604,58.0878145 C49.970004,58.0908661 50.855364,58.1702067 52.235424,58.0491614 C53.547144,57.8996348 56.567364,57.2669442 56.567364,54.645652 C56.567364,52.4617505 54.844584,51.4669411 52.064064,50.5687645 L49.636464,49.8140114 C46.149084,48.7815661 40.863444,47.2161145 40.863444,41.2157255 C40.863444,37.0696692 44.051964,34.0394677 49.055064,33.346763 L49.055064,28.3961114 L53.146284,28.3961114 L53.146284,33.281663 C55.852344,33.5613895 58.623684,34.5205973 60.693264,35.9090583 L61.273644,36.2986411 L59.226504,40.8027473 L58.418664,40.2707583 C55.973724,38.6605505 53.498184,38.2150223 52.238484,38.0919427 C52.204824,38.0878739 51.413304,37.9922583 49.961844,38.131613 C48.495084,38.2740192 46.032804,38.8273692 46.032804,40.9370161 C46.032804,42.7242145 47.149704,43.7770036 50.153604,44.820638 L52.565904,45.569288 C56.454144,46.7624489 61.783644,48.3980864 61.738764,54.4920567 C61.738764,58.8944442 58.393164,62.0965505 53.146284,62.7973927 M74.964084,3.82798172 C68.292264,3.32142234 57.630204,5.35681453 51.808044,17.2121348 C51.561204,17.7125911 51.325584,18.2323739 51.100164,18.7704661 L50.900244,18.7704661 C45.349404,5.48803172 34.061064,3.30311297 27.035304,3.82798172 C17.376924,4.54916766 -0.156876,10.4691989 3.172404,34.2673177 C6.502704,58.0644192 50.900244,88.5037552 50.900244,88.5037552 L52.692384,87.3807802 C60.650424,81.678427 95.876124,55.3627692 98.826984,34.2673177 C102.157284,10.4691989 84.621444,4.56137391 74.964084,3.82798172" id="Fill-1" fill="#20A9F4"></path>
                    <g id="Group-5" transform="translate(0.000000, 0.245854)">
                        <mask id="mask-2" fill="white">
                            <use xlink:href="#path-1"></use>
                        </mask>
                        <g id="Clip-4"></g>
                        <path d="M28.93026,6.26150109 C28.30092,6.26150109 27.73278,6.28693078 27.24216,6.32354953 C23.79456,6.58089797 15.2031,7.89103547 9.87972,14.4722386 C6.11388,19.1299402 4.77462,25.5799261 5.90274,33.641137 C7.17366,42.7236042 15.54276,54.603337 30.10428,67.997662 C38.93442,76.118887 47.61768,82.5373402 50.99082,84.9541777 L51.15198,84.8524589 C55.28094,81.8914261 65.78388,74.0753573 75.70848,64.3866464 C87.89748,52.4865698 94.94772,41.8559433 96.09726,33.641137 C97.22334,25.5870464 95.88918,19.1431636 92.12844,14.4874964 C86.81322,7.90527609 78.20748,6.58598391 74.75478,6.32354953 C70.51056,6.00415266 60.01272,6.51071203 54.28236,18.1758183 C54.06204,18.6274495 53.84682,19.1014589 53.64486,19.5825886 L52.938,21.2741714 L49.062,21.2741714 L48.35514,19.5825886 C43.51626,8.00089172 34.12614,6.26150109 28.93026,6.26150109 L28.93026,6.26150109 Z M50.8317,91.5465698 L49.33842,90.5232792 C47.48406,89.2517948 3.90048,59.1135464 0.44166,34.4009761 C-0.90474,24.7743136 0.82722,16.9084027 5.58858,11.0209214 C12.26448,2.76542766 22.66746,1.15216828 26.83008,0.840908906 C30.83664,0.539821406 43.40712,0.681210469 51.01326,12.7542089 C58.72242,0.644591719 71.2827,0.544907344 75.174,0.840908906 C79.34172,1.15725422 89.75592,2.78475422 96.42264,11.0382136 C101.17584,16.9226433 102.9027,24.7834683 101.55732,34.4009761 C100.2201,43.964573 92.82,55.3753823 79.56612,68.3150245 C69.31512,78.3231323 58.4817,86.3711198 54.2997,89.3677542 L54.15792,89.4623527 L50.8317,91.5465698 Z" id="Fill-3" fill="#0852A3" mask="url(#mask-2)"></path>
                    </g>
                </g>
            </g>
        </g>
    </g>
</svg>