<?xml version="1.0" encoding="UTF-8"?>
<svg width="83px" height="39px" viewBox="0 0 83 39" version="1.1" xmlns="http://www.w3.org/2000/svg" xmlns:xlink="http://www.w3.org/1999/xlink">
    <!-- Generator: sketchtool 62 (101010) - https://sketch.com -->
    <title>3C575961-7A2B-428D-A22D-D11CC8C5A079@1.00x</title>
    <desc>Created with sketchtool.</desc>
    <defs>
        <polygon id="path-1" points="0 37.6569597 81.6515856 37.6569597 81.6515856 0.17071155 0 0.17071155"></polygon>
    </defs>
    <g id="Mobile-Phase-2" stroke="none" stroke-width="1" fill="none" fill-rule="evenodd">
        <g id="Desktop-HomePage1-Unsponsored" transform="translate(-432.000000, -1422.000000)">
            <g id="Group-14" transform="translate(432.574654, 1422.552804)">
                <polygon id="Fill-1" fill="#FFFFFF" points="40.830161 0.251071502 19.7425147 9.28447403 6.58944074 9.28447403 6.58944074 12.9680778 -2.51046398e-05 12.9680778 -2.51046398e-05 37.7373196 81.6515605 37.7373196 81.6515605 12.9680778 75.0658604 12.9680778 75.0658604 9.28447403 61.9173053 9.28447403"></polygon>
                <polygon id="Fill-2" fill="#20A9F4" points="60.3024493 15.8709775 60.300441 19.8746655 62.8917419 19.8791843 63.4314916 15.8724838"></polygon>
                <g id="Group-13" transform="translate(0.000000, 0.080335)">
                    <path d="M74.3683782,19.7403306 C74.5358261,19.7403306 74.686956,19.7272761 74.686956,19.5241796 C74.686956,19.364263 74.5383366,19.3338864 74.4020184,19.3338864 L74.1306372,19.3338864 L74.1306372,19.7403306 L74.3683782,19.7403306 Z M74.1306372,20.4756455 L73.9335658,20.4756455 L73.9335658,19.1649322 L74.4316418,19.1649322 C74.7391737,19.1649322 74.8933162,19.2806646 74.8933162,19.5379872 C74.8933162,19.7737197 74.7482114,19.8751425 74.5551567,19.8987408 L74.9264543,20.4756455 L74.7047803,20.4756455 L74.3595915,19.9077785 L74.1306372,19.9077785 L74.1306372,20.4756455 Z M74.3711397,20.7673614 C74.8862869,20.7673614 75.2897184,20.3656871 75.2897184,19.8181549 C75.2897184,19.2806646 74.8862869,18.8747226 74.3711397,18.8747226 C73.8507205,18.8747226 73.4455316,19.2806646 73.4455316,19.8181549 C73.4455316,20.3656871 73.8507205,20.7673614 74.3711397,20.7673614 L74.3711397,20.7673614 Z M73.2178325,19.8181549 C73.2178325,19.1649322 73.7460341,18.6856846 74.3711397,18.6856846 C74.9902201,18.6856846 75.5191748,19.1649322 75.5191748,19.8181549 C75.5191748,20.4756455 74.9902201,20.9569014 74.3711397,20.9569014 C73.7460341,20.9569014 73.2178325,20.4756455 73.2178325,19.8181549 L73.2178325,19.8181549 Z" id="Fill-3" fill="#20A9F4"></path>
                    <polygon id="Fill-5" fill="#20A9F4" points="13.0256679 29.435391 13.0256679 15.7905172 9.29336107 15.7905172 9.29336107 32.6859397 18.8002371 32.6859397 18.8002371 29.435391"></polygon>
                    <polygon id="Fill-7" fill="#20A9F4" points="50.5940081 32.686015 59.4765318 32.686015 59.4765318 29.4322027 54.3443903 29.4322027 54.3443903 27.3116138 59.4765318 27.3116138 59.4765318 24.1793079 54.3443903 24.1793079 54.3443903 22.0469197 59.4765318 22.0469197 59.4765318 18.7798019 50.5940081 18.7798019 50.5940081 18.7946137"></polygon>
                    <mask id="mask-2" fill="white">
                        <use xlink:href="#path-1"></use>
                    </mask>
                    <g id="Clip-10"></g>
                    <path d="M24.0472323,29.4178679 L27.3289109,29.4178679 L27.3289109,22.0468946 L24.0472323,22.0468946 L24.0472323,29.4178679 Z M31.0674938,30.9088325 C31.0674938,31.8896708 30.2734341,32.6859899 29.2930979,32.6859899 L22.0832964,32.6859899 C21.1027091,32.6859899 20.3091515,31.8896708 20.3091515,30.9088325 L20.3091515,20.5551769 C20.3091515,19.5748408 21.1027091,18.7800279 22.0832964,18.7800279 L29.2930979,18.7800279 C30.2734341,18.7800279 31.0674938,19.5748408 31.0674938,20.5551769 L31.0674938,30.9088325 Z" id="Fill-9" fill="#20A9F4" mask="url(#mask-2)"></path>
                    <path d="M44.7206521,18.7799023 L44.7206521,29.4353157 L42.4672597,29.4353157 L42.4672597,18.7799023 L39.184577,18.7799023 L39.184577,29.4353157 L36.9326908,29.4353157 L36.9326908,18.7799023 L33.1933547,18.7799023 L33.1933547,30.908707 C33.1933547,31.8897963 33.9886697,32.6861155 34.9692569,32.6861155 L39.3881756,32.6861155 C40.1335324,32.6861155 40.8269225,32.1722235 40.8269225,31.4261136 C40.8269225,32.1722235 41.5205637,32.6861155 42.2651673,32.6861155 L46.6845881,32.6861155 C47.6651753,32.6861155 48.4599882,31.8897963 48.4599882,30.908707 L48.4599882,18.7799023 L44.7206521,18.7799023 Z" id="Fill-11" fill="#20A9F4" mask="url(#mask-2)"></path>
                    <path d="M72.5821328,27.4307102 L72.5841412,27.4309612 L72.5600407,27.3835134 C72.5457311,27.3543921 72.5319235,27.3250196 72.5158566,27.2956472 L72.4932624,27.2499568 C71.901295,26.0642646 70.5775273,25.0723803 68.4451392,24.221082 L68.3708295,24.1917095 C67.9465611,24.0257679 66.6629609,23.5229219 66.5211196,22.706268 C66.4812033,22.4783179 66.5738394,22.1190705 66.8286515,21.9016643 C67.0977732,21.6270195 67.5107445,21.4874377 68.0532558,21.4874377 C68.9216253,21.4874377 69.9115012,21.8431705 70.4223807,22.0540495 C71.5016291,22.5019162 72.4463167,22.9013311 72.4561075,22.9055988 L72.5494968,22.94426 L72.5494968,19.9101132 L72.5186181,19.8897785 C72.4987854,19.8759709 70.4592845,18.5918686 68.3989467,18.2956338 C68.1619589,18.2763033 67.9272305,18.2655083 67.702544,18.2655083 C65.8068926,18.2655083 64.3709072,18.9551327 63.433249,20.3135448 C62.6479758,21.4304502 62.5616159,23.1960595 63.2296503,24.5153084 C64.0884801,26.0060219 65.4659716,26.6281148 66.7982749,27.2308772 C67.3478154,27.4779069 67.9169376,27.7352294 68.4466455,28.0525521 L68.4534238,28.0560667 C69.0549309,28.4168204 69.3612075,28.9691225 69.2344291,29.4604203 C69.1026298,29.9687892 68.5204532,30.3114676 67.7851383,30.3114676 C67.6847197,30.3114676 67.5820417,30.3039362 67.4831294,30.2916349 L67.448234,30.2863629 C66.0340896,30.0897936 63.1656335,29.0210891 63.1355079,29.0105451 L63.044127,28.9761518 L63.044127,32.3042739 L63.0915748,32.3205919 C63.1179347,32.3298806 65.8950099,33.2487104 68.3582772,33.2487104 L68.3602856,33.2487104 C69.7053922,33.2487104 70.721628,32.9773293 71.3783653,32.4451109 C71.3944323,32.4328096 72.8999576,31.222515 72.9659828,29.1624282 C72.9853133,28.5920508 72.8557734,28.0096232 72.5821328,27.4307102" id="Fill-12" fill="#20A9F4" mask="url(#mask-2)"></path>
                </g>
            </g>
        </g>
    </g>
</svg>