<?xml version="1.0" encoding="UTF-8"?>
<svg width="76px" height="60px" viewBox="0 0 76 60" version="1.1" xmlns="http://www.w3.org/2000/svg" xmlns:xlink="http://www.w3.org/1999/xlink">
    <!-- Generator: sketchtool 62 (101010) - https://sketch.com -->
    <title>222E415F-F800-44C6-8A5E-31C5D5E046F0@1.00x</title>
    <desc>Created with sketchtool.</desc>
    <defs>
        <polygon id="path-1" points="0 0.00309474067 68.689116 0.00309474067 68.689116 59.7605094 0 59.7605094"></polygon>
        <polygon id="path-3" points="0.213407897 0.00217698999 4.50771056 0.00217698999 4.50771056 4.26822364 0.213407897 4.26822364"></polygon>
    </defs>
    <g id="Mobile-Phase-2" stroke="none" stroke-width="1" fill="none" fill-rule="evenodd">
        <g id="Desktop-HomePage1-Sponsored" transform="translate(-94.000000, -1477.000000)">
            <g id="Group-7-Copy" transform="translate(94.000000, 1477.000000)">
                <g id="Group-3" transform="translate(0.000000, 0.210442)">
                    <mask id="mask-2" fill="white">
                        <use xlink:href="#path-1"></use>
                    </mask>
                    <g id="Clip-2"></g>
                    <path d="M49.371215,4.27212942 C55.2973519,4.27212942 60.102142,29.1150001 60.102142,59.7606161 L68.689116,59.7606161 C68.689116,26.7568077 60.0390341,0.00309474067 49.371215,0.00309474067 C43.3012608,0.00309474067 37.8862125,8.04365785 34.3450839,20.6168422 C30.8052432,8.04365785 25.388263,0.00309474067 19.3189527,0.00309474067 C8.65113371,0.00309474067 -2.14652884e-05,26.7568077 -2.14652884e-05,59.7606161 L8.58802576,59.7606161 C8.58802576,29.1150001 13.3934599,4.27212942 19.3189527,4.27212942 C25.2461628,4.27212942 30.0530995,27.2041578 30.0530995,55.4941426 L38.6379269,55.4941426 C38.6381416,27.2041578 43.4435757,4.27212942 49.371215,4.27212942" id="Fill-1" fill="#FFFFFF" mask="url(#mask-2)"></path>
                </g>
                <g id="Group-6" transform="translate(70.620799, 55.702344)">
                    <mask id="mask-4" fill="white">
                        <use xlink:href="#path-3"></use>
                    </mask>
                    <g id="Clip-5"></g>
                    <path d="M1.92140089,1.9939094 L2.32709484,1.9939094 C2.66839293,1.9939094 2.98328871,1.97683497 2.98328871,1.58156188 C2.98328871,1.25010449 2.69780037,1.1982409 2.4352799,1.1982409 L1.9218302,1.1982409 L1.9218302,1.9939094 L1.92140089,1.9939094 Z M1.53202056,0.88663253 L2.49881715,0.88663253 C3.09104446,0.88663253 3.3700932,1.12055224 3.3700932,1.59842288 C3.3700932,2.0494013 3.08739536,2.23786033 2.71647517,2.27670467 L3.42847879,3.37971292 L3.01054962,3.37971292 L2.33181721,2.30701178 L1.92140089,2.30701178 L1.92140089,3.37971292 L1.53223521,3.37971292 L1.53223521,0.88663253 L1.53202056,0.88663253 Z M2.36659097,3.95640184 C3.35313563,3.95640184 4.11901712,3.16841684 4.11901712,2.12559595 C4.11901712,1.1013435 3.35292097,0.314212221 2.36659097,0.314212221 C1.36802576,0.314212221 0.602788183,1.1013435 0.602788183,2.12559595 C0.602573575,3.16841684 1.36802576,3.95640184 2.36659097,3.95640184 L2.36659097,3.95640184 Z M2.36659097,0.00217698999 C3.53151217,0.00217698999 4.50775349,0.918860519 4.50775349,2.12538252 C4.50775349,3.35068639 3.53151217,4.26822364 2.36659097,4.26822364 C1.19802067,4.26822364 0.213407897,3.35025953 0.213407897,2.12538252 C0.213407897,0.918860519 1.19802067,0.00217698999 2.36659097,0.00217698999 L2.36659097,0.00217698999 Z" id="Fill-4" fill="#FFFFFF" mask="url(#mask-4)"></path>
                </g>
            </g>
        </g>
    </g>
</svg>