<?xml version="1.0" encoding="UTF-8"?>
<svg width="108px" height="36px" viewBox="0 0 108 36" version="1.1" xmlns="http://www.w3.org/2000/svg" xmlns:xlink="http://www.w3.org/1999/xlink">
    <!-- Generator: sketchtool 62 (101010) - https://sketch.com -->
    <title>49BEA835-3B3D-4CFD-B42F-7B9A32DD92AF@1.00x</title>
    <desc>Created with sketchtool.</desc>
    <defs>
        <polygon id="path-1" points="6.12004352e-05 0.567856346 107.558541 0.567856346 107.558541 35.7995157 6.12004352e-05 35.7995157"></polygon>
    </defs>
    <g id="Mobile-Phase-2" stroke="none" stroke-width="1" fill="none" fill-rule="evenodd">
        <g id="Desktop-HomePage1-Sponsored" transform="translate(-1239.000000, -1489.000000)">
            <g id="Group-10-Copy-2" transform="translate(1239.000000, 1489.000000)">
                <path d="M16.0734987,18.26763 C16.0734987,19.7366497 16.2099757,22.5635867 18.078425,22.5635867 C19.9474862,22.5635867 20.0839632,19.7366497 20.0839632,18.26763 C20.0839632,16.7763899 19.8893458,13.7939096 18.078425,13.7939096 C16.2681161,13.7939096 16.0734987,16.7763899 16.0734987,18.26763" id="Fill-1" fill="#FFFFFF"></path>
                <path d="M38.924762,22.5171706 C39.4064094,22.5171706 39.7154716,22.5634633 40.1622348,22.2375631 C40.4890451,21.9807933 40.746699,21.630821 40.9358083,21.1882633 C41.3482992,20.255621 41.4860002,19.1828663 41.4860002,18.1101116 C41.4860002,17.0379741 41.2620066,15.638702 40.7638351,14.7529696 C40.197119,13.7968723 39.6469271,13.843165 38.8219453,13.843165 L38.4094543,13.843165 L38.4094543,22.5171706 L38.924762,22.5171706 Z" id="Fill-3" fill="#FFFFFF"></path>
                <polygon id="Fill-5" fill="#FFFFFF" points="69.4314041 19.9174379 68.5213537 14.8554923 67.6100792 19.9174379"></polygon>
                <g id="Group-9" transform="translate(0.000000, 0.049564)">
                    <mask id="mask-2" fill="white">
                        <use xlink:href="#path-1"></use>
                    </mask>
                    <g id="Clip-8"></g>
                    <path d="M92.9971825,18.3410193 L92.9971825,24.9855558 L89.4365412,24.9855558 L89.4365412,18.3410193 L85.8012353,11.3100936 L89.3551446,11.3100936 L91.1844256,15.2400299 L93.2578964,11.3100936 L96.4935634,11.3100936 L92.9971825,18.3410193 Z M81.2889273,24.9855558 L77.6303652,24.9855558 L74.36165,11.3100936 L77.9553395,11.3100936 L79.427822,19.0236814 L80.7209872,11.3100936 L84.5906907,11.3100936 L81.2889273,24.9855558 Z M70.4081019,24.9855558 L69.7734534,22.4431641 L67.2238432,22.4431641 L66.5408464,24.9855558 L62.8461761,24.9855558 L66.3101207,11.3100936 L70.712268,11.3100936 L74.2086489,24.9855558 L70.4081019,24.9855558 Z M61.0731995,24.9855558 L57.7475678,24.9855558 L53.6257185,16.6985565 L53.6257185,24.9855558 L50.308655,24.9855558 L50.308655,11.3100936 L53.6667228,11.3100936 L57.764704,19.5470968 L57.764704,11.3100936 L61.0731995,11.3100936 L61.0731995,24.9855558 Z M43.6341355,23.3109968 C42.4658192,24.7775475 41.0043528,24.9855558 39.3715252,24.9855558 L34.7827165,24.9855558 L34.7827165,11.3100936 L39.1310075,11.3100936 C40.8329916,11.3100936 42.1904172,11.3329313 43.4627743,12.7988648 C44.6996351,14.203692 45.2669631,16.1442794 45.2669631,18.1688107 C45.2669631,20.0266885 44.7167712,21.9685103 43.6341355,23.3109968 L43.6341355,23.3109968 Z M32.5378846,24.9855558 L25.6907799,24.9855558 L25.6907799,11.3100936 L29.1388124,11.3100936 L29.1388124,22.6227796 L32.5378846,22.6227796 L32.5378846,24.9855558 Z M18.0725497,25.1923295 C14.5088484,25.1923295 12.4537378,22.2160216 12.4537378,18.1891794 C12.4537378,13.9561807 14.4923243,11.1039371 18.0725497,11.1039371 C21.6527752,11.1039371 23.6913617,13.9561807 23.6913617,18.1891794 C23.6913617,22.2160216 21.6356391,25.1923295 18.0725497,25.1923295 L18.0725497,25.1923295 Z M53.7793316,0.567732899 C24.0781484,0.567732899 6.12004352e-05,8.45476375 6.12004352e-05,18.1836243 C6.12004352e-05,27.9131021 24.0781484,35.7995157 53.7793316,35.7995157 C83.4805148,35.7995157 107.558602,27.9131021 107.558602,18.1836243 C107.558602,8.45476375 83.4805148,0.567732899 53.7793316,0.567732899 L53.7793316,0.567732899 Z" id="Fill-7" fill="#FFFFFF" mask="url(#mask-2)"></path>
                </g>
            </g>
        </g>
    </g>
</svg>