<?xml version="1.0" encoding="UTF-8"?>
<svg width="82px" height="78px" viewBox="0 0 82 78" version="1.1" xmlns="http://www.w3.org/2000/svg" xmlns:xlink="http://www.w3.org/1999/xlink">
    <!-- Generator: sketchtool 62 (101010) - https://sketch.com -->
    <title>9FBF6450-F09C-4556-A6D8-04560FA36D3A@1.00x</title>
    <desc>Created with sketchtool.</desc>
    <defs>
        <polygon id="path-1" points="0.435954057 0 81.6076712 0 81.6076712 78 0.435954057 78"></polygon>
    </defs>
    <g id="Mobile-Phase-2" stroke="none" stroke-width="1" fill="none" fill-rule="evenodd">
        <g id="Desktop-HomePage1-Sponsored" transform="translate(-924.000000, -1465.000000)">
            <g id="Pizza-Hut" transform="translate(924.000000, 1465.000000)">
                <mask id="mask-2" fill="white">
                    <use xlink:href="#path-1"></use>
                </mask>
                <g id="Clip-2"></g>
                <path d="M71.2383454,71.4413838 L71.2383454,69.7069135 L71.7501546,69.7069135 L72.0572042,70.890242 L72.3610236,69.7069135 L72.8739095,69.7069135 L72.8739095,71.4413838 L72.5566309,71.4413838 L72.5566309,70.0761179 L72.2201505,71.4413838 L71.8908483,71.4413838 L71.5558035,70.0761179 L71.5558035,71.4413838 L71.2383454,71.4413838 Z M70.1788359,71.4413838 L70.1788359,70.0005863 L69.6765379,70.0005863 L69.6765379,69.7069135 L71.0222801,69.7069135 L71.0222801,70.0005863 L70.5210589,70.0005863 L70.5210589,71.4413838 L70.1788359,71.4413838 Z M54.4800047,39.3799648 C55.243591,39.3182163 56.1580999,38.9170351 56.7537152,38.5529765 C57.4284706,38.140585 57.5436815,37.4161432 57.7986888,36.6678106 C56.1801731,36.8789683 54.8757057,38.0439192 54.4800047,39.3799648 L54.4800047,39.3799648 Z M21.9790456,44.3225984 C23.8909722,43.5027773 25.677459,42.8619533 26.6770302,41.3755796 C28.2138934,39.0907027 26.2890459,37.606718 23.851133,37.5758438 C23.5107045,40.2596966 22.3280879,42.1900712 21.9790456,44.3225984 L21.9790456,44.3225984 Z M5.0584764,54.6707954 C5.37306318,54.377674 5.21352659,49.7777811 4.29363394,47.5524473 C3.25009596,45.02756 -1.05290556,46.0499014 0.969745624,52.4125659 C1.44010041,54.1128539 3.72027128,55.9173425 5.0584764,54.6707954 L5.0584764,54.6707954 Z M30.2386981,8.0744132 C30.3828014,8.68105509 29.4975438,8.80969772 27.9744988,9.44390589 C25.3406197,10.5401249 23.0911358,11.5668768 20.6656054,12.9848862 C14.8352519,16.3931808 10.0764315,22.8563703 7.92205949,29.5292473 C5.91214969,35.7540804 5.95091224,49.6781749 8.61709347,55.6047409 C10.8157912,60.4920582 11.4167901,60.7642292 14.7363715,64.2298617 C17.8393492,67.4688993 23.8477233,71.432195 28.2763442,72.5918164 C29.7861094,72.9871168 31.2834922,73.1923937 32.8205349,73.4535383 C33.7266094,73.6073581 34.4650718,74.1162316 34.0114064,74.3194869 C30.7697091,75.772046 20.451873,71.5578972 17.2945201,69.3208019 C13.1377754,66.3756208 10.6549984,62.9539106 7.73452773,59.0863618 C4.13732757,54.3227252 3.49361806,63.5201219 14.1698282,71.9732291 C23.9667028,79.7296446 40.0951521,79.4403825 51.262534,74.2790564 C59.4434052,70.4982495 65.4856965,65.1209876 69.6295203,57.0628132 C71.0549412,54.2911158 72.0970435,51.9165567 72.9376165,48.5180022 C74.4500736,42.4023315 73.7326076,32.7120497 72.2154846,26.6695216 C69.8918853,17.4155221 62.7021509,11.6697909 55.0966163,8.18982402 C49.7000085,5.72043684 44.3489826,6.44157067 46.4861269,5.06123525 C48.4136663,3.81634214 54.7847214,6.24566632 56.5669012,7.05611489 C59.5214686,8.39969528 62.3197297,10.2398362 64.6261011,11.8530148 C76.0696661,19.8580781 78.3920092,37.4690704 75.1899717,50.6367463 C74.3614222,54.0437544 73.0786691,57.2515503 71.543421,59.9477161 C68.4549793,65.3722082 63.9929796,69.4918966 58.9136504,72.9226118 C58.2362031,73.3800282 55.1750387,74.9737266 55.6148859,75.844821 C56.1218498,76.8493362 59.9250657,75.1225845 60.5398828,74.7734117 C65.1052493,72.1799762 70.8760233,66.7951795 74.2101406,62.67641 C78.013536,57.9778299 80.5691722,51.8364307 81.285382,43.9043261 C82.0884487,35.0096071 81.4806304,28.7862442 78.4392062,21.2295923 C69.5399717,-0.881319163 46.9929113,-3.78515088 26.8681511,3.71747109 C22.4633979,5.35968615 18.0441088,7.6300448 14.4713147,10.5011645 C12.627043,11.9833114 11.0392142,13.3568471 9.54362599,15.1975394 C5.62053332,20.0264162 3.52861203,23.0886621 2.06712048,30.3132322 C1.5479536,32.8800203 1.14256197,39.893984 2.2765459,42.0601421 C2.4852535,42.4589343 3.25117269,43.5724281 4.03198676,43.0177946 C4.62849927,42.5938253 4.46160498,40.9481185 4.49175362,40.1753438 C4.57071436,38.1506926 4.77565338,36.1188741 5.11626131,34.189786 C6.27177998,27.6433463 9.05227483,21.3742234 13.6788359,16.8610724 C15.0940278,15.4805532 15.0123752,15.3094585 16.9697043,13.8004804 C19.7207683,11.6797148 29.8182321,6.30631214 30.2386981,8.0744132 L30.2386981,8.0744132 Z M48.4213829,15.5808944 C49.3572471,15.413659 49.8581095,15.9192246 50.0562292,16.7271003 L51.0888203,20.9368385 C51.5168234,21.4765862 56.1866335,22.7624612 57.2027147,23.1261523 C59.2560529,23.861253 61.0418218,24.7562382 62.9408277,25.7061721 C63.7408436,26.1062507 65.1596245,26.807353 64.6144365,28.0110805 C64.1464146,29.0442646 62.4692167,28.7329494 61.2914454,28.7331332 C47.1074044,28.735706 36.9622052,30.006879 23.4015951,31.989997 C22.168013,32.1704643 16.975088,33.3166701 16.3256359,32.6256754 C15.3746973,31.6134417 19.7116161,29.3930699 20.4608458,28.9525608 C22.2091084,27.9245224 23.8836145,26.9492275 25.7695201,26.1178285 C31.4523606,23.6122376 29.6168822,25.0151774 32.6509487,20.4812598 C33.8461272,18.694965 33.5936323,18.6023423 34.7037486,18.3748286 L48.4213829,15.5808944 Z M32.9411295,36.5604859 C31.6449171,33.9082424 36.3046776,31.2186926 37.157992,31.7158045 C37.8395667,32.1127589 36.0132407,34.3538972 35.7047554,34.8206862 C35.1190103,35.7068502 34.44587,37.0226805 32.9411295,36.5604859 L32.9411295,36.5604859 Z M60.0173062,38.6327349 C60.7518206,38.9201593 61.2928811,38.9004953 62.0001181,39.3064547 C61.9114667,40.2183472 61.1916678,40.464606 60.2051969,40.6248579 C58.6247258,40.8815919 58.5269222,40.5019123 57.4896652,40.0792294 C56.6383248,41.2105494 54.3400289,42.2799372 52.2638997,41.8587245 C51.7913915,43.01173 49.7834557,43.4292673 48.1990366,43.478519 C47.3843053,43.5036962 43.0387727,43.7589599 42.7128802,43.6611915 C42.11888,42.1354899 44.2944279,40.532419 44.8645604,39.9746613 C45.1944009,39.6521359 47.9650257,37.3003648 48.0730583,37.250378 C47.0612841,37.1805434 45.8969721,37.5999184 44.788112,37.4802807 C43.7081444,37.363951 42.8585986,36.5060884 43.7047348,35.4635318 C43.9380279,35.3486723 47.237869,35.0244929 47.9560529,34.9015473 C49.2307305,34.6832224 51.5593546,34.2094499 51.579992,35.845968 C51.5939896,36.9467813 50.0578443,38.0775501 49.5067342,38.6634254 C48.7684512,39.4483292 47.8873211,40.5473048 47.0139077,41.0751071 C47.5504818,41.6185303 48.4667853,41.6012555 49.3437879,41.6545503 C50.1906419,41.7061911 50.962842,41.5398746 51.6987921,41.4011243 C51.2438705,39.0135171 52.1921172,37.664791 54.2619654,36.183563 C55.9657229,34.9645822 58.9987126,34.222498 60.4584096,34.6727472 C60.9172792,36.3877372 59.682082,37.0158808 60.0173062,38.6327349 L60.0173062,38.6327349 Z M21.9790456,44.3225984 C21.2097167,45.377468 20.6031546,47.6698797 20.0545569,49.1215199 C19.5332366,50.501304 18.771086,53.3990711 17.1452125,53.1068685 C16.0250467,51.6333591 17.9240525,46.3248291 18.4868273,44.7518973 C19.4623514,42.0261437 20.6130247,39.9314741 21.9103138,37.9253842 C21.3197234,37.9503776 20.82909,38.3250952 20.3849359,37.8614304 C18.6036533,36.0019931 26.2382598,32.4396949 29.2502531,36.6799398 C31.9882169,40.534073 26.5313118,45.3451236 22.2880692,44.8353312 L21.9790456,44.3225984 Z M38.1353106,44.3060587 C42.4235967,43.9646044 44.3497005,44.8301855 46.5676,44.4797262 C46.9087463,44.4256963 49.7809433,43.3717456 48.8850978,44.8039056 C48.8204936,44.9070035 48.3662898,45.2523171 48.1599152,45.3690143 C45.1118511,47.0931931 41.7149241,45.8613481 37.2356965,46.6800665 C35.7630787,46.9494809 33.9121671,47.7737127 33.4209954,47.1372992 C32.4163994,45.8367222 35.5522176,43.3634757 36.7386028,42.1257499 L39.4521604,39.2737427 C38.8926159,39.3439449 34.8286501,40.1689117 35.0009281,38.4261716 C35.0596103,37.8327615 35.1900749,37.998343 35.3146176,37.8799917 C35.8325283,37.4727459 42.1009344,37.0235994 42.8541122,37.2579127 C43.0597691,38.2786001 42.9372005,38.6461505 42.3889617,39.4639501 C40.9037819,41.6799113 38.8796951,42.9931687 38.1353106,44.3060587 L38.1353106,44.3060587 Z M31.3174095,47.1790161 C29.3171903,47.843731 28.6614572,44.8599571 30.1532769,42.1806986 C30.9493447,40.7511115 32.2303033,39.1026481 32.5335844,38.5527927 C32.9178001,37.8559172 32.6877373,37.6669963 33.6372402,37.7353607 C34.9325553,39.4898624 32.9876086,42.9825098 32.118861,44.7535512 C31.6756041,45.6575414 31.1612826,46.8756033 31.3174095,47.1790161 L31.3174095,47.1790161 Z M54.3549237,47.7590106 C55.7035373,47.6469078 59.6278862,46.3520278 59.9588035,46.9182392 C60.294925,47.4932717 55.7844721,49.1248278 54.5727836,49.5447541 C53.4423888,49.9360115 53.4384408,49.7290806 53.0556606,50.7547299 L50.9411278,56.8549635 C50.5954951,57.90579 50.6579459,58.4732878 49.7583318,58.6315182 C48.5019587,56.1382402 50.1766443,52.808969 50.5208413,50.5847379 C49.2958731,50.5182113 48.2604107,50.4717162 48.3092228,49.2621079 C48.349062,48.2772567 50.0512044,48.6460935 51.5187975,48.4402653 C52.2741287,47.4192103 52.8647192,46.0116762 53.5868511,45.2243833 C54.1668536,44.5920129 55.1018206,44.5324697 55.0659293,45.7527369 C55.050855,46.2680426 54.5205618,47.3289767 54.3549237,47.7590106 L54.3549237,47.7590106 Z M31.0295617,54.8431765 L34.5513902,53.9682228 C34.9083287,53.6025102 36.9101629,46.8017257 38.3151258,47.7481679 L38.5604424,48.3549936 C38.6787041,49.2657834 37.6769794,51.7719256 37.6710573,53.0392393 C38.4131089,52.8119094 38.6930606,52.4855246 39.3069804,52.8244061 C39.0910945,53.639449 38.4694581,53.8063169 37.7275861,54.3473511 C36.1643428,55.4873085 37.6839782,61.5487655 33.9247291,60.7258202 C33.533335,60.640181 33.5426667,58.0649393 33.9247291,56.4852078 C33.277251,56.5329893 31.9927033,57.1559872 31.2099152,57.4094132 C30.2322376,57.7262416 30.0059433,57.9291294 29.8770938,58.4249549 C29.7965179,58.7346161 29.7539868,59.1587692 29.5899638,59.7966529 C29.134145,61.5702672 28.656253,65.2226152 26.4313547,64.221408 C26.0674174,63.9560367 25.9525654,63.7878824 25.8684005,63.0548031 C25.7994893,62.4555123 25.8746814,61.8485028 25.9712289,61.2561954 C26.1424301,60.2057364 26.4663486,59.2624184 26.6768508,58.3246136 C25.5233061,58.3428074 24.6321265,58.2371366 24.2730346,56.9808495 C24.2961844,55.4998052 26.5363366,55.6810076 27.7063912,55.3803514 C28.6024161,53.8121977 29.4307861,50.7376389 31.4051636,48.6054791 C34.3015871,45.4778093 31.2163756,54.2222002 31.0295617,54.8431765 L31.0295617,54.8431765 Z M47.6900988,56.8465098 C46.1625673,57.572238 45.5694645,55.4665419 45.0393508,54.4831609 C44.3100406,55.2790912 42.2398335,58.277751 40.1193787,57.3485836 C38.39624,56.5934514 39.7879231,53.7210452 40.023908,52.7990451 C40.3821026,51.3992295 40.0364699,52.3283969 39.4900257,51.4675939 C39.9020572,50.65494 41.3908261,50.4478254 41.981596,51.2055305 C42.6497116,52.0624742 42.2220674,53.697522 42.0804764,54.7310736 C43.5295855,54.2253243 45.3264807,52.0648632 46.1614906,50.6751553 C46.5288375,50.063919 47.3586431,49.2135912 47.6168806,49.5164527 C48.2860729,50.300989 47.8150003,51.7213874 47.6630009,52.9528649 C47.561967,53.7734211 47.2814769,56.6430707 47.6900988,56.8465098 L47.6900988,56.8465098 Z" id="Fill-1" fill="#FFFFFF" mask="url(#mask-2)"></path>
            </g>
        </g>
    </g>
</svg>