<?xml version="1.0" encoding="UTF-8"?>
<svg width="62px" height="79px" viewBox="0 0 62 79" version="1.1" xmlns="http://www.w3.org/2000/svg" xmlns:xlink="http://www.w3.org/1999/xlink">
    <!-- Generator: sketchtool 62 (101010) - https://sketch.com -->
    <title>81E14A71-3EFA-4499-BAB6-F5982B29DBDE@2.00x</title>
    <desc>Created with sketchtool.</desc>
    <defs>
        <polygon id="path-1" points="0.255044391 0.636289566 10.7254213 0.636289566 10.7254213 12.34375 0.255044391 12.34375"></polygon>
        <polygon id="path-3" points="0.515945064 0.13578125 61.8100401 0.13578125 61.8100401 60.8654627 0.515945064 60.8654627"></polygon>
        <polygon id="path-5" points="0.637525333 0.0948822917 9.83072 0.0948822917 9.83072 11.227299 0.637525333 11.227299"></polygon>
    </defs>
    <g id="Mobile-Phase-2" stroke="none" stroke-width="1" fill="none" fill-rule="evenodd">
        <g id="Desktop-HomePage1-Sponsored" transform="translate(-271.000000, -1468.000000)">
            <g id="Target" transform="translate(271.000000, 1468.000000)">
                <g id="Group-3" transform="translate(30.586667, 66.520716)">
                    <g id="Fill-1-Clipped">
                        <mask id="mask-2" fill="white">
                            <use xlink:href="#path-1"></use>
                        </mask>
                        <g id="path-1"></g>
                        <path d="M5.34795467,12.3438323 C4.99414133,12.2788219 4.63454133,12.2352073 4.28651467,12.1463323 C2.594328,11.7110094 1.41219467,10.6700198 0.769048,9.06697812 C0.0738213333,7.33473854 0.082088,5.56875937 0.804594667,3.85050937 C1.671768,1.78663437 3.30030133,0.753873958 5.52403467,0.643603125 C6.842568,0.578592708 8.025528,0.946436458 9.074568,1.76935312 C9.98555467,2.48529062 10.4154213,3.42670729 10.5766213,4.54669687 C10.505528,4.55739479 10.463368,4.56973854 10.4220347,4.56973854 C9.73342133,4.57056146 9.04398133,4.57549896 8.355368,4.56315521 C8.27931467,4.56233229 8.159448,4.47839479 8.13795467,4.41009271 C7.832088,3.41518646 7.16910133,2.82350937 6.13246133,2.71159271 C5.027208,2.59226979 4.08894133,2.92884271 3.43587467,3.87355104 C3.03163467,4.46029062 2.85059467,5.12849896 2.777848,5.82715521 C2.681128,6.74882187 2.74643467,7.65485312 3.11678133,8.51809271 C3.799608,10.104676 5.69019467,10.7695927 7.22862133,9.95901979 C8.06107467,9.51958229 8.37438133,8.76661354 8.47110133,7.85482187 L6.00763467,7.85482187 L6.00763467,6.05098854 L10.7254213,6.05098854 L10.7254213,12.0623948 C10.232728,12.0623948 9.74086133,12.0689781 9.24982133,12.0533427 C9.19526133,12.0525198 9.114248,11.9331969 9.096888,11.8558427 C9.01835467,11.5250302 8.95883467,11.1884573 8.88691467,10.826374 C8.83483467,10.8675198 8.79763467,10.8880927 8.772008,10.9185406 C8.11398133,11.6986656 7.29062133,12.1800719 6.264728,12.2993948 C6.22339467,12.3043323 6.18371467,12.3281969 6.14238133,12.3438323 L5.34795467,12.3438323 Z" id="Fill-1" fill="#FFFFFF" fill-rule="nonzero" mask="url(#mask-2)"></path>
                    </g>
                </g>
                <path d="M8.26666667e-05,67.4706906 C0.0852293333,67.4542323 0.170376,67.4229615 0.255522667,67.4229615 C3.213336,67.4204927 6.171976,67.4213156 9.130616,67.4213156 C9.17442933,67.4213156 9.21824267,67.427076 9.284376,67.4320135 L9.284376,69.472024 L5.94546933,69.472024 L5.94546933,78.5693677 L3.43240267,78.5693677 L3.43240267,69.4753156 L2.87688267,69.4753156 C2.020456,69.4753156 1.16402933,69.4769615 0.306776,69.4728469 C0.205096,69.472024 0.102589333,69.4399302 8.26666667e-05,69.422649 L8.26666667e-05,67.4706906 Z" id="Fill-4" fill="#FFFFFF" fill-rule="nonzero"></path>
                <g id="Group-8" transform="translate(0.000000, 0.687382)">
                    <g id="Fill-6-Clipped">
                        <mask id="mask-4" fill="white">
                            <use xlink:href="#path-3"></use>
                        </mask>
                        <g id="path-3"></g>
                        <path d="M10.7063756,30.4986083 C10.6923547,41.6853375 19.8137947,50.7522333 31.1283813,50.7563506 C42.844728,50.7604625 51.6082213,41.3783896 51.6256335,30.5405771 C51.6429413,19.7718896 43.0051013,10.3083479 31.1969947,10.2519376 C20.132888,10.2005458 10.7229413,19.037025 10.7063756,30.4986083 M0.515810095,30.4969625 C0.551634667,24.4715667 2.15371467,18.8946604 5.51659467,13.8765146 C8.409928,9.55784792 12.1390213,6.10242083 16.782408,3.68386875 C20.353608,1.82243125 24.148008,0.6744625 28.1689147,0.280285417 C32.029448,-0.0974333333 35.818888,0.270410417 39.5496347,1.30234792 C43.764808,2.46759792 47.5153947,4.49937917 50.8791013,7.27178542 C55.254648,10.8786292 58.319928,15.3791604 60.1757947,20.7042542 C61.4852347,24.4608687 61.992808,28.3368063 61.752248,32.3049104 C61.3885147,38.3072646 59.396248,43.7269937 55.8167813,48.5682125 C54.4875013,50.3662854 52.9821413,52.00965 51.2651547,53.4464625 C47.946088,56.2246292 44.2492347,58.3354104 40.0729147,59.5656708 C36.2462747,60.6930667 32.3435813,61.0954729 28.3648347,60.7399729 C24.440648,60.3894104 20.7322213,59.307275 17.2180613,57.5380042 C12.5548347,55.1918688 8.811688,51.8179104 5.82659467,47.5667229 C3.23499467,43.8784104 1.65523467,39.7992125 0.907928,35.3809729 C0.635128,33.7664104 0.511128,32.1370354 0.515810095,30.4969625" id="Fill-6" fill="#FFFFFF" fill-rule="nonzero" mask="url(#mask-4)"></path>
                    </g>
                </g>
                <path d="M22.743088,72.4756698 C22.9605013,72.4756698 23.1613813,72.4781385 23.3622613,72.4756698 C24.1996747,72.464149 25.0387413,72.4781385 25.8745013,72.4312323 C26.5019413,72.3966698 26.909488,72.029649 27.0649013,71.4725344 C27.4245013,70.183024 26.7797013,69.3247219 25.4405013,69.3173156 C24.620448,69.313201 23.799568,69.3164927 22.978688,69.3173156 C22.901808,69.3173156 22.8257547,69.3271906 22.743088,69.332951 L22.743088,72.4756698 Z M22.7273813,78.576774 L20.2812747,78.576774 L20.2812747,67.4361281 C20.367248,67.4311906 20.4523947,67.4213156 20.5375413,67.4213156 C22.4446613,67.4204927 24.352608,67.4287219 26.259728,67.4178689 C27.083088,67.4130865 27.8312213,67.6402115 28.4950347,68.1051594 C29.0166613,68.4713573 29.3465013,68.9930865 29.5192747,69.6036906 C29.7127147,70.2900031 29.6928747,70.9796073 29.471328,71.6552219 C29.2671413,72.2789927 28.893488,72.7727427 28.2825813,73.0648781 C28.1337813,73.135649 27.9915947,73.2187635 27.837008,73.3010552 C27.869248,73.3265656 27.886608,73.3512531 27.908928,73.3578365 C28.8480213,73.6269302 29.260528,74.3354615 29.4002347,75.218451 C29.5126613,75.9278052 29.5225813,76.6527948 29.6143413,77.3662635 C29.6664213,77.7694927 29.7904213,78.1636698 29.8887947,78.586649 L29.5969813,78.586649 C28.970368,78.586649 28.342928,78.576774 27.7163147,78.5924094 C27.5055147,78.596524 27.403008,78.5249302 27.3765547,78.3274302 C27.2980213,77.7448052 27.221968,77.1621802 27.142608,76.5803781 C27.0897013,76.1977219 27.0566347,75.810951 26.971488,75.435701 C26.8144213,74.7477427 26.383728,74.2893781 25.6603947,74.2572844 C24.694848,74.2144927 23.725168,74.2465865 22.7273813,74.2465865 L22.7273813,78.576774 Z" id="Fill-9" fill="#FFFFFF" fill-rule="nonzero"></path>
                <path d="M43.0508987,67.4288865 L51.442392,67.4288865 L51.442392,69.468074 L45.5110587,69.468074 L45.5110587,71.8734594 L50.9133253,71.8734594 L50.9133253,73.7768656 L45.4846053,73.7768656 L45.4846053,74.5150219 C45.4846053,75.0951781 45.4945253,75.6761573 45.4796453,76.2563135 C45.4746853,76.479324 45.5482587,76.5344594 45.7648453,76.5336365 C47.593432,76.5262302 49.421192,76.5295219 51.2497787,76.5295219 L51.5655653,76.5295219 L51.5655653,78.5703552 L43.0508987,78.5703552 L43.0508987,67.4288865 Z" id="Fill-11" fill="#FFFFFF" fill-rule="nonzero"></path>
                <path d="M13.7732587,70.190924 C13.752592,70.1950385 13.7310987,70.1983302 13.710432,70.2024448 C13.2309653,71.5487365 12.7523253,72.895851 12.2662453,74.2602469 L15.1769387,74.2602469 C14.7032587,72.8876219 14.2378453,71.5396844 13.7732587,70.190924 M8.25029867,78.5863198 C8.519792,77.8753198 8.772752,77.2029969 9.02901867,76.5323198 C10.1532853,73.5846323 11.2808587,70.6385906 12.398512,67.6876115 C12.4770453,67.4810594 12.5729387,67.4102885 12.7936587,67.416049 C13.464912,67.4308615 14.1361653,67.4267469 14.8074187,67.4176948 C14.9735787,67.415226 15.0504587,67.4629552 15.1108053,67.6250698 C15.7060053,69.2314031 16.3053387,70.8369135 16.9154187,72.4383094 C17.656112,74.3812156 18.4092053,76.3191844 19.1556853,78.2596219 C19.1928853,78.3550802 19.2218187,78.4530073 19.2672853,78.5863198 C18.6762187,78.5863198 18.1231787,78.5904344 17.5701387,78.584674 C17.2725387,78.5822052 16.9038453,78.6669656 16.698832,78.5237781 C16.5045653,78.3888198 16.4797653,78.0094552 16.3855253,77.735424 C16.2268053,77.2787052 16.061472,76.8244552 15.920112,76.362799 C15.8589387,76.165299 15.7770987,76.0879448 15.555552,76.0904135 C14.327952,76.1044031 13.0995253,76.1011115 11.8719253,76.0928823 C11.684272,76.0912365 11.5933387,76.1406115 11.5321653,76.3257677 C11.3006987,77.0170177 11.054352,77.7041531 10.7997387,78.387174 C10.769152,78.4694656 10.6558987,78.5764448 10.5790187,78.5772677 C9.82013867,78.5920802 9.060432,78.5863198 8.25029867,78.5863198" id="Fill-13" fill="#FFFFFF" fill-rule="nonzero"></path>
                <g id="Group-17" transform="translate(52.080000, 67.343632)">
                    <g id="Fill-15-Clipped">
                        <mask id="mask-6" fill="white">
                            <use xlink:href="#path-5"></use>
                        </mask>
                        <g id="path-5"></g>
                        <polygon id="Fill-15" fill="#FFFFFF" fill-rule="nonzero" mask="url(#mask-6)" points="9.83088533 0.0948822917 9.83088533 2.13160104 6.44733867 2.13160104 6.44733867 11.227299 4.00536533 11.227299 4.00536533 2.13900729 0.637525333 2.13900729 0.637525333 0.0948822917"></polygon>
                    </g>
                </g>
                <path d="M41.6946215,31.1859906 C41.728976,36.959574 36.8375893,41.6041156 31.1848427,41.6024706 C25.368416,41.600824 20.6746027,36.9669802 20.6746027,31.2073865 C20.6746027,25.4313344 25.3378293,20.813949 31.1633493,20.7949162 C36.8045227,20.7769177 41.714096,25.3975948 41.6946215,31.1859906" id="Fill-18" fill="#FFFFFF" fill-rule="nonzero"></path>
            </g>
        </g>
    </g>
</svg>