<?xml version="1.0" encoding="UTF-8"?>
<svg width="89px" height="61px" viewBox="0 0 89 61" version="1.1" xmlns="http://www.w3.org/2000/svg" xmlns:xlink="http://www.w3.org/1999/xlink">
    <!-- Generator: sketchtool 62 (101010) - https://sketch.com -->
    <title>3AEC18F9-524E-40F0-A1F9-ED9079A77564@2.00x</title>
    <desc>Created with sketchtool.</desc>
    <g id="Mobile-Phase-2" stroke="none" stroke-width="1" fill="none" fill-rule="evenodd">
        <g id="Desktop-AboutTruvvi" transform="translate(-844.000000, -1632.000000)">
            <g id="Group-9" transform="translate(844.000000, 1632.000000)">
                <path d="M73.9537943,34.7664418 C73.9537943,36.4582631 72.5823777,37.8296796 70.8905565,37.8296796 L60.9504216,37.8296796 C59.8926644,37.8296796 59.0355818,36.9721754 59.0355818,35.9152614 L59.0355818,34.3659359 C59.0355818,33.4806071 59.6422428,32.7112142 60.5031197,32.5042159 L71.5920742,29.8393761 C72.7961214,29.5501686 73.9537943,30.4629005 73.9537943,31.7010961 L73.9537943,34.7664418 Z M29.5971332,35.9152614 C29.5971332,36.9721754 28.7400506,37.8296796 27.682715,37.8296796 L17.7425801,37.8296796 C16.0507589,37.8296796 14.6789207,36.4582631 14.6789207,34.7664418 L14.6789207,31.7010961 C14.6789207,30.4629005 15.8370152,29.5501686 17.0410624,29.8393761 L28.1300169,32.5042159 C28.9904722,32.7112142 29.5971332,33.4806071 29.5971332,34.3659359 L29.5971332,35.9152614 Z M77.0376897,21.2626476 L11.5950253,21.1821248 L5.09460371,27.682968 L5.09460371,48.2710793 L83.4580101,48.2710793 L83.4580101,27.682968 L77.0376897,21.2626476 Z" id="Fill-75" fill="#20A9F4"></path>
                <polygon id="Fill-76" fill="#20A9F4" points="19.8412732 2.10796796 68.426855 2.10796796 71.1338533 8.5472597 17.2232293 8.5472597"></polygon>
                <path d="M15.6093592,12.6838533 C15.6093592,12.6838533 7.4811973,12.1615093 4.84038786,12.6838533 C3.77504216,12.8942243 2.10767285,13.8086425 2.10767285,16.0590641 C2.10767285,18.3094857 2.99173693,19.113027 4.84038786,19.8364671 C6.6886172,20.5599073 8.65784148,21.1796374 10.7269815,21.1821669" id="Fill-77" fill="#20A9F4"></path>
                <path d="M10.7247049,23.2901771 C8.21205734,23.287226 5.95151771,22.5346965 4.07209106,21.7994519 C2.05817875,21.0115093 -1.72306613e-13,19.713027 -1.72306613e-13,16.0591484 C-1.72306613e-13,12.9035835 2.22554806,11.0515599 4.4317032,10.6160624 C7.26011804,10.0566189 14.8844857,10.5245784 15.7445194,10.5806492 L15.4742833,14.787226 C12.4367622,14.592032 6.97470489,14.4099073 5.24915683,14.7518128 C4.77740304,14.8449831 4.2158516,15.1472597 4.2158516,16.0591484 C4.2158516,17.2214587 4.33263069,17.3744941 5.60834739,17.8732293 C7.12310287,18.4663997 8.91568297,19.0722175 10.7297639,19.0743255 L10.7247049,23.2901771 Z" id="Fill-78" fill="#0852A3"></path>
                <path d="M72.9231029,12.6838533 C72.9231029,12.6838533 81.0512648,12.1615093 83.6920742,12.6838533 C84.7574199,12.8942243 86.4247892,13.8086425 86.4247892,16.0590641 C86.4247892,18.3094857 85.5407251,19.113027 83.6920742,19.8364671 C81.8438449,20.5599073 79.8746206,21.1796374 77.8054806,21.1821669" id="Fill-79" fill="#20A9F4"></path>
                <path d="M77.807968,23.2901771 L77.8029089,19.0743255 C79.6174115,19.0722175 81.40957,18.4663997 82.9239039,17.8732293 C84.1996206,17.3744941 84.3168212,17.2214587 84.3168212,16.0591484 C84.3168212,15.1472597 83.7548482,14.8449831 83.2839376,14.7518128 C81.5575464,14.4107504 76.0959106,14.5932968 73.057968,14.787226 L72.7877319,10.5806492 C73.6481872,10.525 81.2725548,10.0574621 84.1013912,10.6160624 C86.3067032,11.0515599 88.5326728,12.9035835 88.5326728,16.0591484 C88.5326728,19.7134486 86.4740725,21.0115093 84.4605818,21.7994519 C82.5811551,22.5346965 80.3210371,23.287226 77.807968,23.2901771" id="Fill-80" fill="#0852A3"></path>
                <polygon id="Fill-81" fill="#0852A3" points="18.0448988 11.7852445 70.3534992 11.7852445 70.3534992 7.16003373 18.0448988 7.16003373"></polygon>
                <path d="M7.20257167,46.1632378 L81.3501265,46.1632378 L81.3501265,28.5561551 L76.1637858,23.3693929 L12.4673272,23.2913997 L7.20257167,28.5561551 L7.20257167,46.1632378 Z M83.4580523,50.3790894 L5.09464587,50.3790894 C3.93064924,50.3790894 2.98672007,49.4355818 2.98672007,48.2711636 L2.98672007,27.6830523 C2.98672007,27.1240304 3.20889545,26.587774 3.60392074,26.1927487 L10.1047639,19.6919056 C10.5002108,19.2960371 11.0360455,19.0742833 11.5950675,19.0742833 L11.5980185,19.0742833 L77.040683,19.1548061 C77.5984401,19.1552277 78.1338533,19.377403 78.528457,19.7720067 L84.9487774,26.1927487 C85.3442243,26.587774 85.5659781,27.1240304 85.5659781,27.6830523 L85.5659781,48.2711636 C85.5659781,49.4355818 84.6224705,50.3790894 83.4580523,50.3790894 L83.4580523,50.3790894 Z" id="Fill-82" fill="#0852A3"></path>
                <path d="M15.2346965,19.0788364 L73.3788786,19.1500843 L70.8055228,14.7048904 C70.7435497,14.5982293 70.6912732,14.4860877 70.6491147,14.3701518 L66.9509696,4.2158516 L21.3518971,4.2158516 L17.9189292,14.3267285 C17.8750843,14.4557336 17.8185919,14.5805228 17.7507167,14.6985666 L15.2346965,19.0788364 Z M77.0378162,23.3705734 L77.0352867,23.3705734 L11.5926223,23.2900506 C10.8409359,23.2892074 10.1465852,22.8878583 9.77010961,22.2369309 C9.39405565,21.5860034 9.39321248,20.7841484 9.7675801,20.1323777 L13.9931282,12.7769815 L17.8451518,1.43043845 C18.1356239,0.575042159 18.9383221,1.20792265e-13 19.8413575,1.20792265e-13 L68.4265177,1.20792265e-13 C69.3126897,1.20792265e-13 70.1040051,0.554384486 70.4075464,1.38659359 L74.5466695,12.7529511 L78.8620152,20.2065767 C79.2397555,20.8591906 79.2405987,21.663575 78.8632799,22.3166105 C78.4868044,22.9688027 77.7907673,23.3705734 77.0378162,23.3705734 L77.0378162,23.3705734 Z" id="Fill-83" fill="#0852A3"></path>
                <polygon id="Fill-84" fill="#0852A3" points="5.09464587 58.6899663 18.7725548 58.6899663 18.7725548 48.2709106 5.09464587 48.2709106"></polygon>
                <path d="M7.20257167,56.5820405 L16.664629,56.5820405 L16.664629,50.3788364 L7.20257167,50.3788364 L7.20257167,56.5820405 Z M18.7725548,60.7978921 L5.09464587,60.7978921 C3.93064924,60.7978921 2.98672007,59.8543845 2.98672007,58.6899663 L2.98672007,48.2713322 C2.98672007,47.106914 3.93064924,46.1634064 5.09464587,46.1634064 L18.7725548,46.1634064 C19.936973,46.1634064 20.8804806,47.106914 20.8804806,48.2713322 L20.8804806,58.6899663 C20.8804806,59.8543845 19.936973,60.7978921 18.7725548,60.7978921 L18.7725548,60.7978921 Z" id="Fill-85" fill="#0852A3"></path>
                <polygon id="Fill-86" fill="#0852A3" points="69.7801433 58.6899663 83.4580523 58.6899663 83.4580523 48.2709106 69.7801433 48.2709106"></polygon>
                <path d="M71.8880691,56.5820405 L81.3501265,56.5820405 L81.3501265,50.3788364 L71.8880691,50.3788364 L71.8880691,56.5820405 Z M83.4580523,60.7978921 L69.7801433,60.7978921 C68.6161467,60.7978921 67.6722175,59.8543845 67.6722175,58.6899663 L67.6722175,48.2713322 C67.6722175,47.106914 68.6161467,46.1634064 69.7801433,46.1634064 L83.4580523,46.1634064 C84.6224705,46.1634064 85.5659781,47.106914 85.5659781,48.2713322 L85.5659781,58.6899663 C85.5659781,59.8543845 84.6224705,60.7978921 83.4580523,60.7978921 L83.4580523,60.7978921 Z" id="Fill-87" fill="#0852A3"></path>
                <path d="M61.1436341,35.7215852 L70.890683,35.7215852 C71.4176644,35.7215852 71.8459949,35.2928331 71.8459949,34.7662732 L71.8459949,31.9462901 L61.1436341,34.5183811 L61.1436341,35.7215852 Z M70.890683,39.9374368 L60.423145,39.9374368 C58.4956577,39.9374368 56.9277825,38.36914 56.9277825,36.4420742 L56.9277825,33.9505059 C56.9277825,32.3282462 58.0293845,30.9306914 59.6065346,30.5516863 L71.0993676,27.7903035 C72.3046796,27.4998314 73.5551012,27.7734401 74.5293845,28.5419899 C75.5032462,29.3092749 76.0618465,30.4606239 76.0618465,31.7009275 L76.0618465,34.7662732 C76.0618465,37.6178752 73.7418634,39.9374368 70.890683,39.9374368 L70.890683,39.9374368 Z" id="Fill-88" fill="#0852A3"></path>
                <path d="M16.7870152,31.9462479 L16.7870152,34.766231 C16.7870152,35.2927909 17.2157673,35.721543 17.7423272,35.721543 L27.4893761,35.721543 L27.4893761,34.518339 L16.7870152,31.9462479 Z M28.2098651,39.9373946 L17.7423272,39.9373946 C14.8907251,39.9373946 12.5711636,37.6178331 12.5711636,34.766231 L12.5711636,31.7008853 C12.5711636,30.4610034 13.1297639,29.3092327 14.1036256,28.5419477 C15.0779089,27.7742411 16.3279089,27.4997892 17.5336425,27.7902614 L29.0264755,30.5516442 C30.6036256,30.9306492 31.7052277,32.328204 31.7052277,33.9504637 L31.7052277,36.442032 C31.7052277,38.3690978 30.1373524,39.9373946 28.2098651,39.9373946 L28.2098651,39.9373946 Z" id="Fill-89" fill="#0852A3"></path>
            </g>
        </g>
    </g>
</svg>