<?xml version="1.0" encoding="UTF-8"?>
<svg width="85px" height="74px" viewBox="0 0 85 74" version="1.1" xmlns="http://www.w3.org/2000/svg" xmlns:xlink="http://www.w3.org/1999/xlink">
    <!-- Generator: sketchtool 62 (101010) - https://sketch.com -->
    <title>D09790F7-AD1B-4F42-9CB1-D207C17AEA43@2.00x</title>
    <desc>Created with sketchtool.</desc>
    <g id="Mobile-Phase-2" stroke="none" stroke-width="1" fill="none" fill-rule="evenodd">
        <g id="Desktop-AboutTruvvi" transform="translate(-370.000000, -1625.000000)">
            <g id="Group-8" transform="translate(370.000000, 1625.000000)">
                <polygon id="Fill-40" fill="#20A9F4" points="2.01346941 71.9937735 25.6229252 71.9937735 25.6229252 28.3231504 2.01346941 28.3231504"></polygon>
                <polygon id="Fill-41" fill="#20A9F4" points="59.8012131 71.9937735 82.7555777 71.9937735 82.7555777 28.3231504 59.8012131 28.3231504"></polygon>
                <polygon id="Fill-42" fill="#20A9F4" points="25.6229252 71.9937735 59.8012131 71.9937735 59.8012131 1.99982704 25.6229252 1.99982704"></polygon>
                <polyline id="Fill-43" fill="#FFFFFF" points="36.7812991 71.9937735 36.7812991 57.153457 48.3905465 57.153457 48.3905465 71.9937735"></polyline>
                <polygon id="Fill-44" fill="#0852A3" points="50.4035328 71.9937735 46.3771577 71.9937735 46.3771577 59.153284 38.7942854 59.153284 38.7942854 71.9937735 34.7679103 71.9937735 34.7679103 55.15363 50.4035328 55.15363"></polygon>
                <polygon id="Fill-45" fill="#0852A3" points="61.8144409 71.9937735 57.7880658 71.9937735 57.7880658 3.99965408 27.6361531 3.99965408 27.6361531 71.9937735 23.6097779 71.9937735 23.6097779 1.75267208e-13 61.8144409 1.75267208e-13"></polygon>
                <polygon id="Fill-46" fill="#FFFFFF" points="38.8870128 18.2088252 46.5371255 18.2088252 46.5371255 10.6094824 38.8870128 10.6094824"></polygon>
                <path d="M40.9002004,16.2089981 L44.523938,16.2089981 L44.523938,12.6093095 L40.9002004,12.6093095 L40.9002004,16.2089981 Z M36.8738252,20.2086522 L48.5503131,20.2086522 L48.5503131,8.60965538 L36.8738252,8.60965538 L36.8738252,20.2086522 Z" id="Fill-47" fill="#0852A3"></path>
                <polygon id="Fill-48" fill="#FFFFFF" points="38.8870128 33.1815302 46.5371255 33.1815302 46.5371255 25.5821875 38.8870128 25.5821875"></polygon>
                <path d="M40.9002004,31.1817032 L44.523938,31.1817032 L44.523938,27.5820145 L40.9002004,27.5820145 L40.9002004,31.1817032 Z M36.8738252,35.1813573 L48.5503131,35.1813573 L48.5503131,23.5823604 L36.8738252,23.5823604 L36.8738252,35.1813573 Z" id="Fill-49" fill="#0852A3"></path>
                <polygon id="Fill-50" fill="#FFFFFF" points="38.8870128 48.1538353 46.5371255 48.1538353 46.5371255 40.5544926 38.8870128 40.5544926"></polygon>
                <path d="M40.9002004,46.1540083 L44.523938,46.1540083 L44.523938,42.5543196 L40.9002004,42.5543196 L40.9002004,46.1540083 Z M36.8738252,50.1536624 L48.5503131,50.1536624 L48.5503131,38.5546655 L36.8738252,38.5546655 L36.8738252,50.1536624 Z" id="Fill-51" fill="#0852A3"></path>
                <polygon id="Fill-52" fill="#FFFFFF" points="10.0791041 58.124173 17.7292168 58.124173 17.7292168 50.5248303 10.0791041 50.5248303"></polygon>
                <path d="M12.0922916,56.124346 L15.7160292,56.124346 L15.7160292,52.5246573 L12.0922916,52.5246573 L12.0922916,56.124346 Z M8.0659165,60.1240001 L19.7424044,60.1240001 L19.7424044,48.5250032 L8.0659165,48.5250032 L8.0659165,60.1240001 Z" id="Fill-53" fill="#0852A3"></path>
                <polygon id="Fill-54" fill="#FFFFFF" points="10.0791041 43.1518679 17.7292168 43.1518679 17.7292168 35.5525252 10.0791041 35.5525252"></polygon>
                <path d="M12.0922916,41.1520409 L15.7160292,41.1520409 L15.7160292,37.5523522 L12.0922916,37.5523522 L12.0922916,41.1520409 Z M8.0659165,45.151695 L19.7424044,45.151695 L19.7424044,33.5526981 L8.0659165,33.5526981 L8.0659165,45.151695 Z" id="Fill-55" fill="#0852A3"></path>
                <polygon id="Fill-56" fill="#FFFFFF" points="67.260073 58.124173 74.9101858 58.124173 74.9101858 50.5248303 67.260073 50.5248303"></polygon>
                <path d="M69.2732606,56.124346 L72.8969982,56.124346 L72.8969982,52.5246573 L69.2732606,52.5246573 L69.2732606,56.124346 Z M65.2468855,60.1240001 L76.9233733,60.1240001 L76.9233733,48.5250032 L65.2468855,48.5250032 L65.2468855,60.1240001 Z" id="Fill-57" fill="#0852A3"></path>
                <polygon id="Fill-58" fill="#FFFFFF" points="67.260073 43.1518679 74.9101858 43.1518679 74.9101858 35.5525252 67.260073 35.5525252"></polygon>
                <path d="M69.2732606,41.1520409 L72.8969982,41.1520409 L72.8969982,37.5523522 L69.2732606,37.5523522 L69.2732606,41.1520409 Z M65.2468855,45.151695 L76.9233733,45.151695 L76.9233733,33.5526981 L65.2468855,33.5526981 L65.2468855,45.151695 Z" id="Fill-59" fill="#0852A3"></path>
                <polygon id="Fill-60" fill="#0852A3" points="84.7688861 73.9936006 -2.71443292e-14 73.9936006 -2.71443292e-14 26.3233234 25.623046 26.3233234 25.623046 30.3229775 4.02637513 30.3229775 4.02637513 69.9939465 80.7425109 69.9939465 80.7425109 30.3229775 59.8013339 30.3229775 59.8013339 26.3233234 84.7688861 26.3233234"></polygon>
            </g>
        </g>
    </g>
</svg>