<?xml version="1.0" encoding="UTF-8"?>
<svg width="73px" height="75px" viewBox="0 0 73 75" version="1.1" xmlns="http://www.w3.org/2000/svg" xmlns:xlink="http://www.w3.org/1999/xlink">
    <!-- Generator: sketchtool 62 (101010) - https://sketch.com -->
    <title>45901E1D-9267-44EB-A881-C99C17A8B006@2.00x</title>
    <desc>Created with sketchtool.</desc>
    <g id="Mobile-Phase-2" stroke="none" stroke-width="1" fill="none" fill-rule="evenodd">
        <g id="Desktop-AboutTruvvi" transform="translate(-693.000000, -1625.000000)">
            <g id="Group-7" transform="translate(693.000000, 1625.000000)">
                <polygon id="Fill-1" fill="#FFFFFF" points="31.8292159 71.906013 39.5442243 71.906013 39.5442243 23.8288629 31.8292159 23.8288629"></polygon>
                <path d="M33.9371417,69.7980872 L37.4362985,69.7980872 L37.4362985,25.9367887 L33.9371417,25.9367887 L33.9371417,69.7980872 Z M29.7212901,74.0139388 L41.6521501,74.0139388 L41.6521501,21.7209371 L29.7212901,21.7209371 L29.7212901,74.0139388 Z" id="Fill-2" fill="#0852A3"></path>
                <path d="M14.6074621,72.3277246 L56.7659781,72.3277246 L14.6074621,72.3277246 Z" id="Fill-3" fill="#20A9F4"></path>
                <polygon id="Fill-4" fill="#0852A3" points="14.6074621 74.4359456 56.7659781 74.4359456 56.7659781 70.220094 14.6074621 70.220094"></polygon>
                <path d="M36.6624789,22.3534413 L67.576054,41.1557179 C67.576054,41.1557179 72.3913997,30.4128848 58.1565767,21.7889388 C46.4870995,14.7193773 36.6624789,22.3534413 36.6624789,22.3534413" id="Fill-5" fill="#20A9F4"></path>
                <path d="M40.8044266,22.4053385 L66.2104132,37.8576993 C66.5249157,34.6410046 65.6416948,28.7885594 57.0641231,23.5916791 C50.2521501,19.4652036 44.1969224,20.9032305 40.8044266,22.4053385 L40.8044266,22.4053385 Z M68.5219646,44.1979186 L32.954511,22.5655408 L35.3689292,20.6890653 C35.8170742,20.3412575 46.4861298,12.254411 59.2487774,19.9862828 C67.2985245,24.8627584 69.6948145,30.50947 70.2879848,34.3876319 C70.9498735,38.7156251 69.5590641,41.8851024 69.499199,42.0179017 L68.5219646,44.1979186 Z" id="Fill-7" fill="#0852A3"></path>
                <path d="M36.1338533,22.4036943 L69.2173272,7.7527668 C69.2173272,7.7527668 63.1456577,-2.33281499 47.9390809,4.43320525 C35.4732293,9.97957962 36.1338533,22.4036943 36.1338533,22.4036943" id="Fill-9" fill="#20A9F4"></path>
                <path d="M57.7063238,4.21457119 C55.2666105,4.21457119 52.3159359,4.79298603 48.7961214,6.3591749 C41.51914,9.59694893 39.2434233,15.3891074 38.5410624,19.0320248 L65.7299325,6.99197422 C64.2143339,5.70192363 61.6177909,4.21457119 57.7063238,4.21457119 L57.7063238,4.21457119 Z M34.1911467,25.5691243 L34.0288364,22.515583 C33.9989039,21.9489725 33.4478921,8.57376174 47.0819562,2.50715129 C55.6810287,-1.31915563 61.6852445,-0.0632534348 65.2084317,1.66271621 C69.1397133,3.59020356 70.9483137,6.5408781 71.0233558,6.66524572 L72.2556492,8.71246326 L34.1911467,25.5691243 Z" id="Fill-11" fill="#0852A3"></path>
                <path d="M36.6624789,22.3534413 L67.576054,41.1557179 C67.576054,41.1557179 72.3913997,30.4128848 58.1565767,21.7889388 C46.4870995,14.7193773 36.6624789,22.3534413 36.6624789,22.3534413" id="Fill-13" fill="#20A9F4"></path>
                <path d="M40.8044266,22.4053385 L66.2104132,37.8576993 C66.5249157,34.6410046 65.6416948,28.7885594 57.0641231,23.5916791 C50.2521501,19.4652036 44.1969224,20.9032305 40.8044266,22.4053385 L40.8044266,22.4053385 Z M68.5219646,44.1979186 L32.954511,22.5655408 L35.3689292,20.6890653 C35.8170742,20.3412575 46.4861298,12.254411 59.2487774,19.9862828 C67.2985245,24.8627584 69.6948145,30.50947 70.2879848,34.3876319 C70.9498735,38.7156251 69.5590641,41.8851024 69.499199,42.0179017 L68.5219646,44.1979186 Z" id="Fill-15" fill="#0852A3"></path>
                <path d="M36.1338533,22.4036943 L69.2173272,7.7527668 C69.2173272,7.7527668 63.1456577,-2.33281499 47.9390809,4.43320525 C35.4732293,9.97957962 36.1338533,22.4036943 36.1338533,22.4036943" id="Fill-17" fill="#20A9F4"></path>
                <path d="M57.7063238,4.21457119 C55.2666105,4.21457119 52.3159359,4.79298603 48.7961214,6.3591749 C41.51914,9.59694893 39.2434233,15.3891074 38.5410624,19.0320248 L65.7299325,6.99197422 C64.2143339,5.70192363 61.6177909,4.21457119 57.7063238,4.21457119 L57.7063238,4.21457119 Z M34.1911467,25.5691243 L34.0288364,22.515583 C33.9989039,21.9489725 33.4478921,8.57376174 47.0819562,2.50715129 C55.6810287,-1.31915563 61.6852445,-0.0632534348 65.2084317,1.66271621 C69.1397133,3.59020356 70.9483137,6.5408781 71.0233558,6.66524572 L72.2556492,8.71246326 L34.1911467,25.5691243 Z" id="Fill-19" fill="#0852A3"></path>
                <path d="M35.593086,22.3534413 L4.67951096,41.1557179 C4.67951096,41.1557179 -0.136256324,30.4128848 14.0989882,21.7889388 C25.7684654,14.7193773 35.593086,22.3534413 35.593086,22.3534413" id="Fill-21" fill="#20A9F4"></path>
                <path d="M24.4182125,20.8861563 C21.6720067,20.8861563 18.5227656,21.5737617 15.1913997,23.5918899 C6.6193086,28.7849759 5.73145025,34.6336268 6.04637437,37.857067 L31.4510961,22.4055493 C29.7175379,21.6374211 27.2883642,20.8861563 24.4182125,20.8861563 L24.4182125,20.8861563 Z M3.73355818,44.1981294 L2.75590219,42.0176909 C2.69645868,41.8853132 1.30564924,38.7154144 1.96753794,34.3874211 C2.56028668,30.5092592 4.95699831,24.8629692 13.0067454,19.986072 C25.7706577,12.2537786 36.4384486,20.3410467 36.8865936,20.6888545 L39.3010118,22.56533 L3.73355818,44.1981294 Z" id="Fill-23" fill="#0852A3"></path>
                <path d="M36.1217116,22.4036943 L3.03823777,7.7527668 C3.03823777,7.7527668 9.10990725,-2.33281499 24.316484,4.43320525 C36.781914,9.97957962 36.1217116,22.4036943 36.1217116,22.4036943" id="Fill-25" fill="#20A9F4"></path>
                <path d="M6.52698145,6.99235365 L33.7145868,19.0324042 C33.012226,15.3890653 30.7365093,9.59690677 23.4595278,6.35913274 C14.3026981,2.28409058 8.99367622,4.89412431 6.52698145,6.99235365 L6.52698145,6.99235365 Z M38.0645025,25.5690821 L-3.97903932e-13,8.7124211 L1.23229342,6.66562515 C1.30733558,6.54083594 3.11593592,3.59016141 7.04721754,1.66267405 C10.5704047,-0.0632955933 16.5746206,-1.31793303 25.1732715,2.50710913 C38.8073356,8.57371958 38.2567454,21.949352 38.2268128,22.5155408 L38.0645025,25.5690821 Z" id="Fill-27" fill="#0852A3"></path>
                <path d="M35.593086,22.3534413 L4.67951096,41.1557179 C4.67951096,41.1557179 -0.136256324,30.4128848 14.0989882,21.7889388 C25.7684654,14.7193773 35.593086,22.3534413 35.593086,22.3534413" id="Fill-29" fill="#20A9F4"></path>
                <path d="M24.4182125,20.8861563 C21.6720067,20.8861563 18.5227656,21.5737617 15.1913997,23.5918899 C6.6193086,28.7849759 5.73145025,34.6336268 6.04637437,37.857067 L31.4510961,22.4055493 C29.7175379,21.6374211 27.2883642,20.8861563 24.4182125,20.8861563 L24.4182125,20.8861563 Z M3.73355818,44.1981294 L2.75590219,42.0176909 C2.69645868,41.8853132 1.30564924,38.7154144 1.96753794,34.3874211 C2.56028668,30.5092592 4.95699831,24.8629692 13.0067454,19.986072 C25.7706577,12.2537786 36.4384486,20.3410467 36.8865936,20.6888545 L39.3010118,22.56533 L3.73355818,44.1981294 Z" id="Fill-31" fill="#0852A3"></path>
                <path d="M36.1217116,22.4036943 L3.03823777,7.7527668 C3.03823777,7.7527668 9.10990725,-2.33281499 24.316484,4.43320525 C36.781914,9.97957962 36.1217116,22.4036943 36.1217116,22.4036943" id="Fill-33" fill="#20A9F4"></path>
                <path d="M6.52698145,6.99235365 L33.7145868,19.0324042 C33.012226,15.3890653 30.7365093,9.59690677 23.4595278,6.35913274 C14.3026981,2.28409058 8.99367622,4.89412431 6.52698145,6.99235365 L6.52698145,6.99235365 Z M38.0645025,25.5690821 L-3.97903932e-13,8.7124211 L1.23229342,6.66562515 C1.30733558,6.54083594 3.11593592,3.59016141 7.04721754,1.66267405 C10.5704047,-0.0632955933 16.5746206,-1.31793303 25.1732715,2.50710913 C38.8073356,8.57371958 38.2567454,21.949352 38.2268128,22.5155408 L38.0645025,25.5690821 Z" id="Fill-35" fill="#0852A3"></path>
                <polygon id="Fill-37" fill="#0852A3" points="32.2052698 44.4949675 40.3338533 44.4949675 40.3338533 40.2791159 32.2052698 40.2791159"></polygon>
                <polygon id="Fill-39" fill="#0852A3" points="32.2052698 57.9856926 40.3338533 57.9856926 40.3338533 53.769841 32.2052698 53.769841"></polygon>
            </g>
        </g>
    </g>
</svg>