<?xml version="1.0" encoding="UTF-8"?>
<svg width="82px" height="55px" viewBox="0 0 82 55" version="1.1" xmlns="http://www.w3.org/2000/svg" xmlns:xlink="http://www.w3.org/1999/xlink">
    <!-- Generator: sketchtool 62 (101010) - https://sketch.com -->
    <title>84F744CC-2F83-488B-B7F8-FEA6C55621FF@2.00x</title>
    <desc>Created with sketchtool.</desc>
    <g id="Mobile-Phase-2" stroke="none" stroke-width="1" fill="none" fill-rule="evenodd">
        <g id="Desktop-AboutTruvvi" transform="translate(-533.000000, -1635.000000)">
            <g id="Group-5" transform="translate(533.000000, 1635.000000)">
                <path d="M35.7633954,11.1741147 C34.8717428,11.1741147 34.0433279,10.6041315 33.75665,9.70952782 C33.5218271,8.97681282 33.4025185,8.21290051 33.4025185,7.4376054 C33.4025185,3.33642496 36.7385219,1.20792265e-13 40.8397023,1.20792265e-13 C44.9408827,1.20792265e-13 48.2773077,3.33642496 48.2773077,7.4376054 C48.2773077,8.19013491 48.1647445,8.93381113 47.9425691,9.64797639 C47.5968693,10.7596965 46.4164308,11.3823777 45.3038676,11.0349916 C44.1921475,10.6897133 43.5711526,9.50801012 43.9168524,8.39629005 C44.0125522,8.08768971 44.0614561,7.76517707 44.0614561,7.4376054 C44.0614561,5.66104553 42.6158406,4.2158516 40.8397023,4.2158516 C39.063564,4.2158516 37.6183701,5.66104553 37.6183701,7.4376054 C37.6183701,7.77487352 37.6698035,8.10623946 37.7709839,8.42200675 C38.1263802,9.53077572 37.5163465,10.7175379 36.4075775,11.0729342 C36.1938338,11.1416526 35.9767175,11.1741147 35.7633954,11.1741147" id="Fill-66" fill="#0852A3"></path>
                <path d="M75.9224595,43.5974705 C75.3689182,24.696543 59.8748203,9.54435076 40.8398288,9.54435076 C21.8048372,9.54435076 6.3107394,24.696543 5.75719809,43.5974705 L75.9224595,43.5974705 Z" id="Fill-67" fill="#20A9F4"></path>
                <path d="M7.99826048,41.4895447 L73.6812284,41.4895447 C72.9455623,33.708769 69.4991037,26.4975548 63.8414308,20.9937605 C57.6496096,14.9697302 49.4805539,11.6522766 40.8397445,11.6522766 C32.1985134,11.6522766 24.0298794,14.9697302 17.8380581,20.9937605 C12.1803853,26.4975548 8.73392659,33.708769 7.99826048,41.4895447 M75.9223752,45.7053963 L5.75711377,45.7053963 C5.18755222,45.7053963 4.64202102,45.4747892 4.2448878,45.0658516 C3.84817616,44.6573356 3.63316773,44.105059 3.65003114,43.5359191 C3.93417954,33.8310287 7.92869893,24.7521922 14.8979232,17.9722597 C21.8814814,11.1779933 31.0943819,7.43642496 40.8397445,7.43642496 C50.585107,7.43642496 59.7980075,11.1779933 66.7815657,17.9722597 C73.75079,24.7521922 77.7453094,33.8310287 78.0294578,43.5359191 C78.0463212,44.105059 77.8317343,44.6573356 77.4346011,45.0658516 C77.0378895,45.4747892 76.4923583,45.7053963 75.9223752,45.7053963" id="Fill-68" fill="#0852A3"></path>
                <path d="M14.990419,36.042285 C15.2821559,35.0709528 15.8390699,33.59414 16.3909249,32.5342749" id="Fill-69" fill="#20A9F4"></path>
                <path d="M17.0092217,36.6491568 L12.9717006,35.4354132 C13.2895758,34.377656 13.892021,32.7697302 14.5214477,31.5610455 L18.260908,33.5075042 C17.783252,34.4248735 17.2697613,35.7819562 17.0092217,36.6491568" id="Fill-70" fill="#FFFFFF"></path>
                <path d="M17.7459839,29.8564503 C18.9238929,27.9171585 20.3555961,26.1157251 22.0217006,24.4951518 C27.0874679,19.5668212 33.7704359,16.852656 40.8395758,16.852656" id="Fill-71" fill="#20A9F4"></path>
                <path d="M19.5473752,30.9507589 L15.9445084,28.7623103 C17.2214898,26.6594435 18.77208,24.7155143 20.5520126,22.9844857 C26.0128052,17.6712479 33.2181171,14.7450253 40.8395337,14.7450253 L40.8395337,18.9608769 C34.3222487,18.9608769 28.1612031,21.4625632 23.4917259,26.0059865 C21.9668524,27.4891231 20.6397023,29.1526981 19.5473752,30.9507589" id="Fill-72" fill="#FFFFFF"></path>
                <polygon id="Fill-73" fill="#20A9F4" points="77.018623 52.0485245 4.25892659 52.0485245 2.1079991 42.8368887 79.1695505 42.8368887"></polygon>
                <path d="M5.9312706,49.9405987 L75.3461104,49.9405987 L76.5126365,44.9448145 L4.76474446,44.9448145 L5.9312706,49.9405987 Z M77.0185387,54.1564503 L4.25884227,54.1564503 C3.27907836,54.1564503 2.42874109,53.4814924 2.20614412,52.5278668 L0.0552166364,43.316231 C-0.0910734142,42.6897555 0.056902977,42.0308179 0.456565709,41.5270236 C0.856650026,41.0232293 1.46457583,40.7289629 2.10791478,40.7289629 L79.1694662,40.7289629 C79.8128052,40.7289629 80.420731,41.0232293 80.8208153,41.5270236 C81.220478,42.0308179 81.3684544,42.6897555 81.2221644,43.316231 L79.0712369,52.5278668 C78.8486399,53.4814924 77.9978811,54.1564503 77.0185387,54.1564503 L77.0185387,54.1564503 Z" id="Fill-74" fill="#0852A3"></path>
            </g>
        </g>
    </g>
</svg>