<?xml version="1.0" encoding="UTF-8"?>
<svg width="59px" height="78px" viewBox="0 0 59 78" version="1.1" xmlns="http://www.w3.org/2000/svg" xmlns:xlink="http://www.w3.org/1999/xlink">
    <!-- Generator: sketchtool 62 (101010) - https://sketch.com -->
    <title>AB9F4593-D069-4ADE-AFEB-1382DDA3FD44@2.00x</title>
    <desc>Created with sketchtool.</desc>
    <g id="Mobile-Phase-2" stroke="none" stroke-width="1" fill="none" fill-rule="evenodd">
        <g id="Desktop-AboutTruvvi" transform="translate(-1011.000000, -1623.000000)">
            <g id="Group-6" transform="translate(1011.000000, 1623.000000)">
                <polygon id="Fill-61" fill="#20A9F4" points="2.26450253 75.8852445 55.9618044 75.8852445 51.9862563 20.4956998 6.24005059 20.4956998"></polygon>
                <path d="M4.52908938,73.7773187 L53.6973019,73.7773187 L50.0244519,22.6036256 L8.20193929,22.6036256 L4.52908938,73.7773187 Z M58.2263912,77.9931703 L-2.27373675e-13,77.9931703 L4.27824621,18.387774 L53.948145,18.387774 L58.2263912,77.9931703 Z" id="Fill-62" fill="#0852A3"></path>
                <path d="M44.8219646,31.2186341 C44.8219646,29.2397133 43.2174115,27.6351602 41.2384907,27.6351602 C39.25957,27.6351602 37.6550169,29.2397133 37.6550169,31.2186341 C37.6550169,33.1975548 39.25957,34.8021079 41.2384907,34.8021079 C43.2174115,34.8021079 44.8219646,33.1975548 44.8219646,31.2186341" id="Fill-63" fill="#0852A3"></path>
                <path d="M20.5713744,31.2186341 C20.5713744,29.2397133 18.9668212,27.6351602 16.9879005,27.6351602 C15.0089798,27.6351602 13.4044266,29.2397133 13.4044266,31.2186341 C13.4044266,33.1975548 15.0089798,34.8021079 16.9879005,34.8021079 C18.9668212,34.8021079 20.5713744,33.1975548 20.5713744,31.2186341" id="Fill-64" fill="#0852A3"></path>
                <path d="M43.3365514,30.9477234 L39.1206998,30.9477234 L39.1206998,14.2331366 C39.1206998,8.70952782 34.6270236,4.2158516 29.1034148,4.2158516 C23.5798061,4.2158516 19.0861298,8.70952782 19.0861298,14.2331366 L19.0861298,30.9477234 L14.8702782,30.9477234 L14.8702782,14.2331366 C14.8702782,6.38448567 21.2551855,-9.05941988e-14 29.1034148,-9.05941988e-14 C36.9516442,-9.05941988e-14 43.3365514,6.38448567 43.3365514,14.2331366 L43.3365514,30.9477234 Z" id="Fill-65" fill="#0852A3"></path>
            </g>
        </g>
    </g>
</svg>